<?xml version="1.0" standalone="no"?>
<!DOCTYPE svg PUBLIC "-//W3C//DTD SVG 20010904//EN"
 "http://www.w3.org/TR/2001/REC-SVG-20010904/DTD/svg10.dtd">
<svg version="1.0" xmlns="http://www.w3.org/2000/svg"
 width="432.000000pt" height="432.000000pt" viewBox="0 0 432.000000 432.000000"
 preserveAspectRatio="xMidYMid meet">

<g transform="translate(0.000000,432.000000) scale(0.100000,-0.100000)"
fill="#000000" stroke="none">
<path d="M1040 4306 c0 -8 4 -17 9 -20 5 -4 7 3 4 14 -6 23 -13 26 -13 6z"/>
<path d="M2090 4310 c0 -5 5 -10 10 -10 6 0 10 5 10 10 0 6 -4 10 -10 10 -5 0
-10 -4 -10 -10z"/>
<path d="M2350 4296 c0 -14 5 -28 11 -31 15 -10 18 -4 12 28 -7 34 -23 36 -23
3z"/>
<path d="M1983 4283 c-7 -2 -13 -16 -13 -30 0 -19 4 -24 16 -19 9 3 20 6 25 6
5 0 9 11 9 25 0 24 -11 29 -37 18z"/>
<path d="M2120 4281 c0 -6 5 -13 10 -16 6 -3 10 1 10 9 0 9 -4 16 -10 16 -5 0
-10 -4 -10 -9z"/>
<path d="M543 4243 c-3 -16 -15 -47 -26 -71 -22 -51 -19 -61 10 -29 12 13 23
43 27 75 7 55 1 70 -11 25z"/>
<path d="M2240 4259 c0 -5 5 -7 10 -4 6 3 10 8 10 11 0 2 -4 4 -10 4 -5 0 -10
-5 -10 -11z"/>
<path d="M28 4221 l-28 -16 1 -135 c0 -74 3 -128 6 -120 2 8 9 24 14 35 5 11
13 47 19 80 11 62 12 69 24 96 4 9 4 30 -1 46 -8 29 -9 29 -35 14z"/>
<path d="M2955 4230 c-3 -6 -1 -10 4 -10 6 0 11 -8 11 -18 0 -11 8 -26 18 -35
42 -38 44 -8 2 39 -16 18 -32 29 -35 24z"/>
<path d="M2696 4095 c-15 -8 -34 -15 -41 -15 -7 0 -16 -17 -20 -37 -5 -29 -3
-40 12 -52 11 -9 27 -28 36 -43 10 -16 26 -28 36 -28 25 0 31 -9 21 -35 -14
-36 9 -50 37 -23 29 27 29 56 0 67 -31 12 -49 36 -51 68 -1 16 -5 34 -9 40 -4
7 -3 22 3 33 17 32 8 41 -24 25z"/>
<path d="M2820 4090 c0 -13 7 -20 20 -20 23 0 26 10 8 28 -18 18 -28 15 -28
-8z"/>
<path d="M1816 4075 c-3 -9 0 -15 9 -15 16 0 20 16 6 24 -5 3 -11 -1 -15 -9z"/>
<path d="M1882 4051 c-23 -14 13 -33 55 -28 l38 4 -44 1 c-34 2 -42 5 -37 17
6 17 6 18 -12 6z"/>
<path d="M1845 4010 c-19 -8 -19 -9 2 -9 12 -1 25 4 28 9 7 12 -2 12 -30 0z"/>
<path d="M2111 4013 c-1 -7 -7 -10 -15 -7 -8 3 -17 1 -21 -5 -4 -7 8 -11 34
-11 23 0 41 5 41 11 0 6 -6 9 -14 6 -8 -3 -17 -1 -20 6 -3 9 -5 9 -5 0z"/>
<path d="M2164 3995 c4 -12 -5 -15 -47 -16 -29 -1 -59 -1 -67 0 -13 2 -13 1 0
-8 8 -6 24 -11 34 -11 19 0 19 0 1 -14 -17 -12 -21 -12 -33 3 -11 14 -12 13
-2 -7 7 -13 14 -21 17 -18 4 3 12 1 20 -5 8 -8 13 -8 13 -1 0 6 -6 13 -12 15
-7 3 1 6 19 6 17 1 35 -4 39 -10 4 -8 -1 -9 -17 -5 -20 6 -21 5 -6 -4 9 -6 22
-8 28 -5 17 11 79 -43 73 -63 -5 -14 -4 -14 4 -3 12 16 -1 51 -18 51 -6 0 -10
7 -10 15 0 8 -4 15 -9 15 -5 0 -7 9 -4 20 4 17 2 19 -13 13 -17 -6 -17 -5 -5
10 7 9 10 17 5 17 -5 0 -2 5 6 10 13 8 12 10 -4 10 -12 0 -16 -5 -12 -15z"/>
<path d="M1736 3954 c-42 -40 -104 -162 -113 -221 -3 -21 -10 -43 -15 -50 -9
-11 -15 -63 -22 -188 -3 -65 29 -171 63 -210 10 -11 23 -29 29 -40 10 -18 12
-18 13 10 1 27 2 26 9 -10 5 -22 12 -60 15 -85 4 -25 16 -63 26 -85 10 -22 21
-54 25 -72 7 -38 140 -177 169 -178 31 -1 121 -75 104 -86 -8 -4 -6 -14 6 -33
13 -20 25 -26 53 -26 44 0 32 -12 -26 -29 -38 -11 -47 -10 -70 5 -24 16 -25
16 -13 1 31 -38 81 -59 146 -60 l64 -2 71 70 c85 83 121 128 94 118 -11 -4
-15 -3 -10 5 3 6 9 39 12 74 6 83 24 180 34 193 4 6 12 30 17 54 l8 44 33 -28
c34 -29 59 -29 97 -1 19 14 18 15 -18 21 -20 4 -46 5 -57 2 -17 -4 -18 -2 -9
15 6 10 17 22 25 25 15 5 20 33 6 33 -5 0 -17 -9 -27 -20 -31 -35 -45 -25 -44
30 1 28 5 50 10 50 5 0 12 12 15 26 4 17 9 22 14 14 4 -7 11 21 15 61 4 41 11
79 15 84 4 6 15 32 25 60 16 49 16 51 -11 132 -20 59 -31 80 -39 73 -7 -6 -16
-5 -25 3 -12 10 -12 9 -3 -3 5 -8 11 -22 11 -30 1 -8 4 -31 8 -50 4 -26 3 -31
-5 -20 -6 8 -11 23 -11 33 0 10 -5 15 -10 12 -6 -4 -10 -3 -9 2 1 4 1 19 0 33
-1 20 -3 22 -11 10 -8 -12 -10 -9 -10 13 0 16 -4 26 -10 22 -6 -4 -10 6 -11
22 -2 47 -4 53 -14 50 -5 -1 -9 -10 -8 -20 2 -14 -1 -16 -16 -8 -16 9 -18 7
-14 -17 3 -19 2 -23 -5 -13 -8 11 -10 11 -15 0 -3 -8 -6 3 -6 24 -1 21 -5 46
-10 55 -4 9 -11 30 -15 46 -6 24 -5 27 6 19 16 -12 48 -24 48 -17 0 7 -53 27
-67 25 -7 -1 -21 12 -31 28 -12 20 -22 27 -31 22 -17 -11 -5 -51 15 -51 8 0
13 -3 13 -7 -5 -29 3 -43 24 -43 17 0 19 -2 7 -9 -8 -6 -19 -7 -25 -3 -5 3 -4
-2 4 -11 12 -15 12 -17 -4 -11 -13 5 -16 4 -11 -4 4 -7 -8 -2 -27 11 -19 12
-33 25 -31 29 3 4 -1 10 -7 14 -8 4 -9 3 -5 -4 4 -7 2 -12 -5 -12 -8 0 -7 -5
2 -17 10 -12 3 -10 -26 7 -22 13 -47 29 -55 35 -28 22 -44 29 -35 16 5 -9 0
-8 -16 2 -27 16 -142 44 -209 50 -26 3 -44 9 -42 16 3 17 -2 14 -42 -25z m184
-25 c0 -5 17 -9 37 -9 20 0 44 -6 52 -14 9 -7 27 -17 40 -21 18 -5 22 -4 17 6
-4 8 3 2 16 -12 13 -14 31 -31 41 -36 14 -7 6 -10 -35 -10 -32 0 -40 2 -20 4
31 4 33 5 15 18 -10 8 -29 15 -43 15 -14 0 -45 9 -68 20 -32 14 -49 17 -62 10
-10 -6 -36 -10 -58 -10 -21 0 -42 -3 -45 -6 -11 -11 36 -45 52 -38 9 3 28 7
44 9 15 2 31 7 36 10 5 3 20 1 33 -4 23 -10 23 -10 -4 -12 -16 -1 -32 -3 -38
-4 -5 -1 -16 -3 -22 -4 -8 -1 -5 -7 6 -16 11 -8 15 -15 9 -15 -7 0 -15 5 -18
10 -4 6 -22 9 -40 7 -23 -3 -36 1 -39 10 -3 8 -11 11 -17 7 -8 -4 -7 -9 2 -16
11 -8 11 -9 -1 -5 -8 2 -14 10 -12 17 1 7 0 21 -4 32 -5 16 -8 17 -14 7 -5 -7
-7 -16 -4 -21 2 -4 -13 -6 -35 -5 -22 0 -37 5 -34 10 3 5 15 6 28 3 36 -9 39
7 4 24 -29 15 -30 18 -14 33 20 21 71 22 90 3 8 -7 11 -16 8 -20 -4 -3 5 -6
18 -5 13 0 18 3 11 6 -6 2 -10 9 -6 14 3 5 -1 9 -8 10 -7 1 -2 4 12 8 29 8 70
2 70 -10z m-162 -104 c9 1 11 0 4 -2 -8 -3 -5 -11 10 -24 21 -17 21 -18 3 -12
-22 7 -45 32 -44 48 0 6 3 5 5 -1 3 -7 13 -11 22 -9z m235 8 c-7 -2 -21 -2
-30 0 -10 3 -4 5 12 5 17 0 24 -2 18 -5z m-276 -29 c-3 -3 -12 -4 -19 -1 -8 3
-5 6 6 6 11 1 17 -2 13 -5z m33 -28 c0 -2 -9 -6 -20 -9 -11 -3 -18 -1 -14 4 5
9 34 13 34 5z m134 -12 c6 -15 4 -15 -11 -3 -10 7 -20 15 -22 16 -2 2 3 3 11
3 9 0 19 -7 22 -16z m202 -2 c-3 -2 -22 -6 -43 -8 l-38 -3 30 13 c26 12 63 11
51 -2z m-176 -40 c-6 -2 -23 3 -39 11 -16 8 -33 11 -38 7 -4 -4 -19 -3 -33 1
-25 8 -24 9 3 5 15 -2 30 0 32 5 3 4 23 0 45 -9 21 -9 35 -18 30 -20z m148 -2
c7 -12 18 -17 29 -13 12 5 14 3 8 -7 -6 -10 -4 -12 9 -7 10 4 15 3 11 -3 -3
-6 -2 -10 4 -10 6 0 8 -6 5 -14 -7 -19 16 -32 27 -15 7 11 9 10 9 -3 0 -14 8
-18 35 -18 19 0 35 5 35 10 0 6 11 10 24 10 30 0 68 -47 86 -105 7 -22 23 -57
36 -78 31 -48 43 -112 33 -174 -4 -26 -8 -54 -8 -61 -1 -8 -8 -11 -20 -7 -11
3 -26 -1 -35 -10 -15 -15 -16 -15 -16 0 0 9 -4 14 -9 11 -10 -7 -71 13 -71 23
0 4 -13 15 -30 24 -36 22 -39 14 -6 -16 32 -29 21 -49 -19 -38 -19 5 -29 14
-29 24 1 14 -7 17 -42 17 -23 0 -46 -5 -50 -11 -4 -7 -22 -9 -48 -5 -22 3 -48
2 -56 -4 -10 -6 -11 -10 -2 -10 19 0 14 -13 -14 -34 -32 -23 -49 -10 -35 27
15 38 1 33 -42 -14 -25 -27 -35 -45 -29 -52 17 -22 13 -85 -6 -92 -9 -3 -18
-3 -19 2 -2 4 -8 15 -13 23 -9 13 -11 13 -20 0 -7 -11 -10 -11 -10 -2 0 7 -4
11 -9 8 -5 -3 -19 18 -32 47 -19 44 -22 70 -23 176 -1 118 0 124 22 139 13 8
22 11 21 6 -7 -37 -1 -38 89 -17 32 7 27 -13 -5 -22 -34 -8 -85 -44 -78 -54 7
-12 59 0 71 17 9 13 12 13 17 -2 8 -20 46 -21 53 -1 8 20 23 19 20 -2 -2 -10
-22 -22 -52 -32 -31 -10 -42 -17 -30 -19 29 -6 99 26 119 54 26 34 38 82 25
90 -18 11 -59 17 -129 18 -48 0 -65 4 -62 13 8 21 67 60 103 67 32 6 88 54 91
77 1 5 2 14 3 20 0 7 10 15 21 20 14 5 15 8 5 9 -10 1 -9 4 5 10 11 5 14 9 7
9 -7 1 -10 6 -7 11 9 15 19 12 33 -10z m32 4 c0 -8 -19 -13 -24 -6 -3 5 1 9 9
9 8 0 15 -2 15 -3z m-416 -54 c-8 -8 -15 -5 -25 7 -13 17 -13 17 5 3 18 -14
19 -13 12 5 -6 16 -5 18 5 8 9 -9 10 -16 3 -23z m604 -461 c19 -30 11 -32 -11
-3 -10 13 -14 24 -10 24 5 0 14 -9 21 -21z m-205 -46 c-7 -2 -19 -2 -25 0 -7
3 -2 5 12 5 14 0 19 -2 13 -5z m97 -27 c0 -9 -10 -12 -30 -10 -16 2 -32 -1
-36 -7 -4 -7 3 -10 17 -9 13 1 36 2 52 1 81 -3 -32 -61 -121 -61 -55 0 -61 -2
-59 -20 1 -12 10 -23 23 -26 24 -6 111 0 157 12 24 6 27 4 27 -19 0 -21 -6
-26 -37 -32 -21 -5 -45 -10 -53 -12 -8 -2 -44 -5 -79 -7 -58 -3 -66 -1 -88 22
-32 35 -50 96 -33 117 7 8 20 15 29 15 9 0 22 9 28 20 10 15 26 20 85 23 40 1
83 4 96 5 13 1 22 -4 22 -12z m68 -56 c-12 -19 -38 -35 -38 -24 0 3 8 16 18
29 20 27 37 23 20 -5z"/>
<path d="M1735 3920 c-3 -5 3 -10 14 -10 11 0 23 5 26 10 3 6 -3 10 -14 10
-11 0 -23 -4 -26 -10z"/>
<path d="M1879 3919 c-10 -6 -7 -9 14 -9 29 0 35 5 14 13 -8 3 -20 1 -28 -4z"/>
<path d="M2013 3673 c9 -2 23 -2 30 0 6 3 -1 5 -18 5 -16 0 -22 -2 -12 -5z"/>
<path d="M2175 3548 c-51 -16 -75 -31 -75 -44 0 -7 -7 -17 -15 -21 -21 -12 -9
-70 18 -84 25 -14 130 -23 164 -14 16 4 23 11 19 20 -4 10 2 15 17 15 40 0 50
14 26 36 -12 10 -24 18 -27 16 -4 -2 -8 1 -10 7 -2 6 3 11 12 11 23 0 20 23
-7 48 -25 24 -70 28 -122 10z m101 -66 c-5 -8 -66 -4 -66 4 0 2 16 4 36 4 19
0 33 -4 30 -8z m-96 -52 c0 -5 -5 -10 -11 -10 -5 0 -7 5 -4 10 3 6 8 10 11 10
2 0 4 -4 4 -10z m80 6 c0 -3 -4 -8 -10 -11 -5 -3 -10 -1 -10 4 0 6 5 11 10 11
6 0 10 -2 10 -4z m-14 -33 c-7 -7 -87 -5 -95 3 -2 2 20 4 49 4 29 0 50 -3 46
-7z"/>
<path d="M2065 3110 c-3 -5 -1 -10 4 -10 6 0 11 5 11 10 0 6 -2 10 -4 10 -3 0
-8 -4 -11 -10z"/>
<path d="M410 3955 c-6 -8 -9 -23 -5 -34 3 -10 1 -22 -5 -26 -13 -8 -13 -45 0
-45 6 0 10 11 10 24 0 13 7 29 15 36 16 13 21 60 6 60 -5 0 -14 -7 -21 -15z"/>
<path d="M1938 3963 c7 -3 16 -2 19 1 4 3 -2 6 -13 5 -11 0 -14 -3 -6 -6z"/>
<path d="M2266 3955 c4 -8 13 -15 21 -15 12 0 12 2 -1 15 -8 8 -17 15 -20 15
-3 0 -3 -7 0 -15z"/>
<path d="M1985 3950 c11 -5 27 -9 35 -9 13 -1 13 0 0 9 -8 5 -24 9 -35 9 l-20
0 20 -9z"/>
<path d="M4140 3935 c0 -8 4 -15 10 -15 5 0 7 7 4 15 -4 8 -8 15 -10 15 -2 0
-4 -7 -4 -15z"/>
<path d="M211 3910 c-30 -26 -14 -26 19 0 14 11 21 20 15 19 -5 0 -21 -9 -34
-19z"/>
<path d="M613 3870 c-19 -34 -39 -39 -46 -12 -4 13 -5 11 -6 -5 -1 -15 5 -23
14 -23 13 0 15 -10 10 -52 -3 -29 -2 -47 1 -40 8 16 19 15 38 -4 13 -12 17
-13 20 -2 2 7 8 29 15 49 14 45 14 59 -1 92 -16 34 -23 34 -45 -3z m-8 -100
c3 -5 1 -10 -4 -10 -6 0 -11 5 -11 10 0 6 2 10 4 10 3 0 8 -4 11 -10z"/>
<path d="M2122 3883 c6 -7 14 -13 18 -13 3 0 7 6 7 13 0 7 -8 13 -18 13 -13 0
-15 -3 -7 -13z"/>
<path d="M3146 3881 c-16 -18 -16 -20 6 -40 12 -12 24 -17 26 -11 2 5 10 10
18 10 17 0 17 1 4 34 -11 31 -30 33 -54 7z"/>
<path d="M511 3869 c-13 -11 -21 -23 -17 -27 4 -4 12 1 17 11 6 9 17 17 24 17
8 0 15 5 15 10 0 15 -12 12 -39 -11z"/>
<path d="M2692 3881 c2 -7 7 -12 11 -12 12 1 9 15 -3 20 -7 2 -11 -2 -8 -8z"/>
<path d="M3210 3879 c0 -5 5 -7 10 -4 6 3 10 8 10 11 0 2 -4 4 -10 4 -5 0 -10
-5 -10 -11z"/>
<path d="M2310 3867 c0 -9 5 -19 10 -22 6 -4 7 -11 4 -17 -4 -7 -2 -8 4 -4 9
5 9 13 1 29 -16 31 -19 33 -19 14z"/>
<path d="M3000 3840 c-13 -8 -13 -11 -1 -22 11 -10 14 -10 18 0 3 6 9 9 15 6
6 -4 9 -1 6 6 -6 18 -20 22 -38 10z"/>
<path d="M440 3825 c0 -8 -4 -15 -8 -15 -4 0 -16 -13 -25 -30 -19 -32 -47 -41
-47 -15 0 23 -17 18 -23 -6 -7 -26 0 -109 15 -166 10 -41 31 -57 41 -30 9 25
30 -12 29 -52 -2 -40 11 -61 23 -41 4 6 18 15 31 20 16 6 27 20 30 40 4 16 13
35 20 41 11 9 12 15 3 26 -8 9 -10 34 -6 73 4 35 3 62 -3 65 -6 3 -10 0 -10
-7 0 -18 -26 11 -35 39 -5 18 -3 22 9 17 19 -7 20 -3 4 31 -12 27 -48 35 -48
10z m0 -110 c0 -24 -36 -72 -46 -62 -3 3 0 23 6 46 12 46 40 57 40 16z"/>
<path d="M3477 3806 c-9 -22 23 -36 67 -29 65 10 59 27 -15 38 -37 5 -47 4
-52 -9z"/>
<path d="M0 3650 c0 -120 3 -151 12 -142 7 7 20 12 29 12 9 0 22 7 29 15 18
22 33 18 27 -7 -3 -12 -2 -29 3 -39 7 -11 6 -35 -1 -67 -7 -28 -9 -58 -5 -67
5 -14 11 -12 38 17 l32 33 6 -30 c5 -25 7 -27 13 -12 6 16 9 17 22 3 8 -8 15
-30 15 -50 0 -51 15 -52 34 -1 17 42 17 46 -1 69 -10 14 -24 26 -31 26 -16 0
-51 39 -52 56 0 6 -9 23 -20 36 -15 20 -17 28 -7 41 7 8 20 17 29 19 19 3 20
2 -42 78 l-20 25 6 -37 c5 -33 4 -38 -14 -38 -11 0 -22 -7 -26 -15 -3 -8 -12
-15 -21 -15 -21 0 -19 13 5 28 24 14 26 35 5 52 -12 10 -12 15 1 35 19 29 10
48 -17 40 -16 -5 -19 -1 -19 22 0 15 -7 37 -15 47 -13 18 -15 3 -15 -134z"/>
<path d="M3975 3770 c3 -5 2 -10 -3 -10 -6 0 -8 -10 -5 -22 4 -18 2 -20 -6 -8
-8 12 -12 12 -28 -1 -10 -9 -26 -19 -35 -22 -20 -7 -22 -15 -9 -36 9 -14 51
-7 51 9 0 5 7 7 15 4 9 -4 15 0 15 10 0 8 9 20 20 26 16 9 22 8 26 -5 7 -18
34 -20 34 -2 0 17 -52 67 -69 67 -7 0 -9 -4 -6 -10z"/>
<path d="M735 3759 c-4 -6 -5 -12 -2 -15 2 -3 7 2 10 11 7 17 1 20 -8 4z"/>
<path d="M1265 3750 c-3 -5 -1 -10 4 -10 6 0 11 5 11 10 0 6 -2 10 -4 10 -3 0
-8 -4 -11 -10z"/>
<path d="M2951 3716 c-12 -15 -78 -15 -113 -1 -15 6 -17 1 -15 -39 2 -43 17
-60 32 -36 12 19 43 10 73 -20 33 -33 39 -35 62 -20 13 9 13 12 -3 21 -15 9
-16 19 -11 60 7 50 -2 63 -25 35z"/>
<path d="M1228 3714 c-3 -5 -8 -27 -9 -48 -5 -49 17 -61 23 -12 4 37 -5 76
-14 60z"/>
<path d="M2607 3673 c-4 -3 -7 -15 -7 -26 0 -16 3 -17 15 -7 8 7 15 19 15 26
0 15 -12 19 -23 7z"/>
<path d="M1111 3633 c0 -36 22 -100 31 -93 4 3 23 -11 44 -30 22 -21 32 -27
26 -15 -5 11 -19 29 -31 39 -11 10 -27 43 -36 72 -17 58 -35 72 -34 27z"/>
<path d="M935 3610 c-25 -10 -91 -78 -83 -85 3 -3 30 17 59 44 56 52 58 56 24
41z"/>
<path d="M1292 3608 c-7 -9 -6 -23 3 -46 13 -29 17 -32 42 -26 32 8 81 54 58
54 -8 0 -17 -4 -20 -10 -3 -5 -17 -10 -31 -10 -19 0 -24 5 -24 25 0 27 -12 32
-28 13z"/>
<path d="M3640 3612 c0 -5 11 -14 25 -20 22 -10 25 -9 25 8 0 15 -7 20 -25 20
-14 0 -25 -4 -25 -8z"/>
<path d="M3085 3590 c3 -5 11 -10 16 -10 6 0 7 5 4 10 -3 6 -11 10 -16 10 -6
0 -7 -4 -4 -10z"/>
<path d="M541 3546 c-15 -61 -14 -73 8 -79 15 -4 21 -17 26 -69 6 -58 9 -64
28 -63 15 1 26 12 34 36 17 50 16 63 -9 74 -20 9 -24 20 -28 75 -4 57 -8 65
-26 68 -18 3 -23 -5 -33 -42z"/>
<path d="M3036 3553 c-13 -13 -5 -25 30 -39 41 -17 57 -11 28 11 -32 25 -51
35 -58 28z"/>
<path d="M3535 3487 c-15 -21 -14 -23 5 -37 53 -37 90 -73 90 -87 0 -8 6 -13
13 -10 6 2 10 11 8 18 -3 8 -4 28 -3 44 2 38 -3 45 -55 72 l-42 23 -16 -23z"/>
<path d="M4166 3478 c8 -27 26 -40 37 -29 12 12 -10 51 -29 51 -11 0 -14 -6
-8 -22z"/>
<path d="M300 3463 c0 -23 34 -75 43 -66 16 15 6 52 -18 67 -23 15 -25 15 -25
-1z"/>
<path d="M2685 3470 c-8 -14 3 -30 21 -30 8 0 14 9 14 20 0 21 -24 28 -35 10z"/>
<path d="M1510 3445 c-6 -7 -8 -19 -4 -28 3 -8 0 -25 -6 -38 -11 -20 -10 -21
8 -17 20 6 21 1 24 -71 l3 -76 19 34 c10 19 20 60 23 91 5 52 3 58 -25 87 -24
24 -34 28 -42 18z"/>
<path d="M368 3438 c7 -7 12 -18 12 -26 0 -8 7 -20 17 -27 18 -13 10 -35 -14
-35 -11 0 -14 -7 -10 -26 3 -15 1 -40 -3 -55 -9 -30 -5 -33 33 -29 11 1 21 -7
24 -19 6 -25 28 -28 37 -5 9 24 7 177 -3 193 -5 7 -22 15 -37 17 -16 1 -30 8
-32 13 -2 6 -11 11 -20 11 -12 0 -13 -3 -4 -12z"/>
<path d="M1136 3379 c-6 -35 -3 -48 18 -78 44 -63 78 -73 95 -28 9 23 -12 72
-34 80 -7 3 -15 18 -17 34 -2 22 -9 29 -29 31 -24 3 -27 -1 -33 -39z"/>
<path d="M730 3390 c0 -5 5 -10 10 -10 6 0 10 5 10 10 0 6 -4 10 -10 10 -5 0
-10 -4 -10 -10z"/>
<path d="M2620 3363 c0 -6 5 -15 10 -18 6 -3 10 -17 10 -31 0 -14 7 -27 15
-30 8 -4 13 -10 10 -14 -3 -5 -1 -11 4 -14 7 -5 6 -74 -2 -106 -3 -13 25 -50
38 -50 17 0 19 9 6 42 -6 16 -5 32 4 48 9 17 10 30 4 42 -13 24 9 24 26 1 8
-11 18 -14 31 -8 10 4 25 9 33 11 7 1 18 7 23 12 13 13 -37 62 -63 62 -11 0
-31 7 -44 16 -15 10 -32 13 -46 9 -17 -6 -27 -1 -40 16 -10 13 -19 19 -19 12z"/>
<path d="M2491 3320 c0 -14 -4 -36 -7 -50 -5 -22 -4 -23 6 -7 6 9 9 32 7 50
-3 25 -4 26 -6 7z"/>
<path d="M3547 3334 c-12 -12 4 -24 30 -24 21 0 24 2 13 15 -13 16 -32 20 -43
9z"/>
<path d="M3345 3310 c-3 -5 3 -20 14 -32 12 -12 21 -34 21 -48 0 -19 7 -30 25
-38 14 -6 25 -16 25 -21 0 -12 40 -51 52 -51 4 0 8 13 8 29 0 47 42 64 72 29
10 -12 24 -18 33 -14 23 8 18 25 -11 36 -31 12 -63 48 -64 73 0 9 -7 17 -15
17 -9 0 -18 7 -21 15 -5 11 -22 15 -69 15 -35 0 -67 -4 -70 -10z"/>
<path d="M571 3214 c0 -11 3 -14 6 -6 3 7 2 16 -1 19 -3 4 -6 -2 -5 -13z"/>
<path d="M3105 3220 c3 -5 10 -10 16 -10 5 0 9 5 9 10 0 6 -7 10 -16 10 -8 0
-12 -4 -9 -10z"/>
<path d="M1280 3196 c0 -14 5 -28 10 -31 6 -3 10 5 10 19 0 14 -4 28 -10 31
-6 3 -10 -5 -10 -19z"/>
<path d="M1017 3186 c-3 -7 -1 -18 5 -24 6 -6 8 -22 4 -37 -6 -24 -10 -26 -39
-19 -28 6 -30 5 -19 -9 14 -16 51 -12 64 7 11 16 10 96 -1 96 -5 0 -11 -6 -14
-14z"/>
<path d="M2952 3188 c-7 -7 -12 -16 -12 -20 0 -15 15 -8 28 12 13 22 3 27 -16
8z"/>
<path d="M0 3146 c0 -16 6 -26 14 -26 9 0 12 7 9 20 -8 31 -23 34 -23 6z"/>
<path d="M3058 3162 c-9 -4 -26 -19 -38 -34 -24 -31 -21 -37 5 -11 14 14 20
15 38 4 18 -11 22 -11 34 4 9 14 10 22 2 32 -13 14 -16 15 -41 5z"/>
<path d="M2858 3138 c-2 -13 -13 -27 -25 -33 -30 -13 -29 -23 2 -37 21 -9 32
-8 61 6 24 11 34 21 30 31 -3 8 0 15 6 15 6 0 -1 9 -15 20 -33 26 -55 25 -59
-2z"/>
<path d="M360 3131 c0 -21 26 -36 36 -20 6 11 -13 39 -27 39 -5 0 -9 -9 -9
-19z"/>
<path d="M3268 3144 c-4 -3 -2 -17 4 -30 8 -18 8 -27 -2 -39 -26 -31 -2 -24
33 9 41 39 47 56 18 56 -11 0 -26 2 -33 5 -8 3 -17 3 -20 -1z"/>
<path d="M3395 3130 c-3 -5 1 -10 9 -10 9 0 16 5 16 10 0 6 -4 10 -9 10 -6 0
-13 -4 -16 -10z"/>
<path d="M880 3120 c0 -5 5 -10 11 -10 5 0 7 5 4 10 -3 6 -8 10 -11 10 -2 0
-4 -4 -4 -10z"/>
<path d="M3974 3099 c-12 -11 -43 -26 -69 -33 -46 -11 -74 -36 -41 -36 8 0 20
-9 26 -21 12 -21 9 -27 -37 -77 -18 -19 -16 -53 7 -105 l20 -45 37 20 c26 13
50 18 76 15 22 -3 50 1 67 10 17 8 39 11 51 8 13 -4 45 0 75 11 45 15 53 22
59 48 18 90 18 91 -16 129 -27 30 -40 37 -70 37 -20 0 -42 -7 -49 -15 -27 -32
-100 -6 -100 36 0 32 -15 39 -36 18z"/>
<path d="M2740 3091 c0 -10 24 -21 46 -21 8 0 14 7 14 15 0 10 -10 15 -30 15
-16 0 -30 -4 -30 -9z"/>
<path d="M2987 3064 c-9 -10 12 -46 24 -39 14 9 11 45 -4 45 -8 0 -17 -3 -20
-6z"/>
<path d="M3540 3040 c6 -11 17 -20 25 -20 34 0 51 -62 21 -82 -15 -10 14 -39
34 -33 21 7 123 -30 140 -50 25 -30 33 -16 27 45 -3 37 -13 70 -26 89 -12 16
-21 36 -21 44 0 21 -57 19 -71 -2 -7 -12 -12 -13 -15 -3 -4 7 -25 12 -55 12
-27 0 -49 5 -49 10 0 6 -5 10 -10 10 -7 0 -7 -6 0 -20z"/>
<path d="M942 3042 c-7 -2 -19 -16 -27 -32 -14 -26 -13 -29 8 -43 13 -9 35
-13 50 -10 24 5 27 10 27 43 0 31 -4 38 -23 42 -12 2 -28 3 -35 0z"/>
<path d="M2516 3025 c-11 -8 -28 -15 -39 -15 -33 0 -12 -25 24 -28 19 -2 40
-8 47 -14 20 -17 25 -2 11 36 -15 40 -16 41 -43 21z"/>
<path d="M1337 3023 c-9 -9 12 -33 29 -33 8 0 14 9 14 20 0 19 -28 28 -43 13z"/>
<path d="M2772 3021 c-11 -7 -10 -10 3 -15 23 -9 25 -8 25 9 0 17 -9 19 -28 6z"/>
<path d="M370 3013 c1 -16 36 -50 57 -55 17 -4 24 -1 29 14 7 24 -12 40 -38
34 -10 -2 -18 0 -18 5 0 5 -7 9 -15 9 -8 0 -15 -3 -15 -7z"/>
<path d="M1166 2994 c-7 -26 -1 -43 10 -32 9 9 12 58 4 58 -4 0 -11 -12 -14
-26z"/>
<path d="M2407 3013 c-4 -3 -7 -12 -7 -20 0 -11 4 -11 20 -3 11 6 18 15 15 21
-7 11 -19 12 -28 2z"/>
<path d="M760 3000 c0 -5 5 -10 10 -10 6 0 10 5 10 10 0 6 -4 10 -10 10 -5 0
-10 -4 -10 -10z"/>
<path d="M790 3000 c0 -5 4 -10 9 -10 6 0 13 5 16 10 3 6 -1 10 -9 10 -9 0
-16 -4 -16 -10z"/>
<path d="M2648 2998 c0 -7 -2 -18 -2 -25 -2 -19 -73 -90 -108 -107 -38 -20
-39 -20 -32 -1 4 8 18 15 33 15 17 0 22 3 13 8 -7 5 -10 16 -6 25 9 25 -23 32
-61 14 -26 -12 -33 -13 -29 -3 5 12 -13 25 -43 31 -20 5 -22 -34 -1 -60 11
-14 23 -23 28 -20 10 6 22 -23 15 -36 -7 -11 18 -59 41 -81 30 -26 91 -39 105
-22 14 17 39 1 39 -24 0 -8 13 9 29 39 33 63 46 70 54 31 4 -19 18 -37 39 -50
l33 -21 12 67 c6 37 12 87 12 112 l1 45 -67 0 -68 0 -3 38 c-2 24 -8 37 -18
37 -8 0 -15 -6 -16 -12z"/>
<path d="M2908 2991 c-33 -19 -31 -30 6 -51 16 -8 38 -34 51 -58 13 -24 26
-44 30 -45 8 -2 14 101 7 120 -2 7 -18 20 -35 31 -29 17 -34 17 -59 3z"/>
<path d="M3370 2987 c0 -29 -24 -47 -65 -47 -19 0 -29 -8 -41 -34 -10 -20 -32
-42 -58 -55 -31 -16 -35 -20 -14 -16 14 3 34 2 42 -1 23 -9 19 -34 -5 -34 -17
0 -20 -4 -15 -22 4 -13 10 -51 13 -85 l6 -63 88 0 c76 0 92 3 109 20 25 25 53
26 76 3 16 -17 17 -14 11 62 -3 43 -3 75 1 69 4 -5 20 -15 36 -22 26 -12 32
-11 50 8 18 18 19 22 6 31 -8 5 -36 8 -63 6 -56 -4 -87 13 -87 48 0 17 9 29
30 40 29 15 29 16 14 40 -12 18 -13 28 -5 44 15 28 14 31 -11 31 -34 0 -52
-15 -46 -38 3 -11 2 -25 -2 -32 -12 -20 -53 7 -47 30 3 11 -1 24 -9 31 -11 9
-14 7 -14 -14z"/>
<path d="M573 2985 c-9 -24 0 -25 27 -5 l25 20 -23 0 c-12 0 -25 -7 -29 -15z"/>
<path d="M1291 2948 c-1 -20 -4 -43 -7 -52 -4 -11 -1 -16 10 -16 9 0 16 -8 16
-20 0 -11 6 -20 14 -20 23 0 29 19 12 36 -19 18 -21 34 -4 34 7 0 5 5 -5 13
-9 6 -21 23 -26 37 -9 23 -10 23 -10 -12z"/>
<path d="M565 2920 c-3 -5 -2 -10 4 -10 5 0 13 5 16 10 3 6 2 10 -4 10 -5 0
-13 -4 -16 -10z"/>
<path d="M1382 2887 c-7 -8 -8 -24 -4 -38 l7 -26 40 18 c32 15 35 19 17 19
-15 0 -26 7 -29 20 -6 23 -16 25 -31 7z"/>
<path d="M900 2871 c-7 -13 -7 -22 0 -26 5 -3 10 -17 10 -31 0 -18 5 -24 21
-24 12 0 23 -8 26 -20 3 -11 10 -20 15 -20 6 0 8 9 5 21 -6 23 23 59 48 59 18
0 18 5 5 31 -11 20 -40 27 -40 9 0 -5 -7 -10 -15 -10 -8 0 -15 7 -15 15 0 22
-47 19 -60 -4z"/>
<path d="M805 2870 c-4 -6 7 -10 25 -10 18 0 29 4 25 10 -3 6 -15 10 -25 10
-10 0 -22 -4 -25 -10z"/>
<path d="M0 2855 c0 -9 6 -12 15 -9 8 4 15 10 15 15 0 5 -7 9 -15 9 -8 0 -15
-7 -15 -15z"/>
<path d="M2401 2844 c0 -11 3 -14 6 -6 3 7 2 16 -1 19 -3 4 -6 -2 -5 -13z"/>
<path d="M591 2803 c-9 -18 -14 -47 -12 -70 0 -7 10 -13 21 -13 17 0 20 7 20
50 0 51 -12 64 -29 33z"/>
<path d="M1746 2778 c-20 -28 -20 -38 -2 -38 19 0 46 27 46 46 0 22 -27 17
-44 -8z"/>
<path d="M1016 2781 c-3 -5 1 -25 9 -45 16 -38 48 -49 59 -20 11 28 6 34 -23
28 -26 -6 -28 -4 -24 20 5 25 -9 36 -21 17z"/>
<path d="M3738 2781 c-31 -7 -88 -55 -88 -75 0 -15 41 -29 52 -18 4 4 9 19 11
32 4 21 9 25 36 22 23 -2 31 1 31 12 0 9 0 19 1 23 1 10 -12 12 -43 4z"/>
<path d="M1654 2736 c-8 -22 3 -33 18 -18 9 9 9 15 0 24 -9 9 -13 7 -18 -6z"/>
<path d="M830 2725 c-7 -8 -8 -15 -2 -15 5 0 15 7 22 15 7 8 8 15 2 15 -5 0
-15 -7 -22 -15z"/>
<path d="M20 2711 c0 -6 11 -11 25 -11 14 0 25 -4 25 -10 0 -5 7 -10 15 -10
18 0 20 14 3 27 -19 13 -68 16 -68 4z"/>
<path d="M3104 2678 c3 -13 6 -26 6 -30 0 -5 9 -8 21 -8 31 0 23 52 -10 57
-20 3 -23 0 -17 -19z"/>
<path d="M1975 2556 c-28 -18 -58 -42 -67 -52 -16 -19 -16 -19 21 -16 34 3 45
-2 109 -58 40 -34 72 -64 72 -66 0 -3 -13 -73 -29 -157 -108 -554 -121 -645
-150 -987 -12 -135 -25 -288 -31 -340 -5 -52 -7 -96 -5 -98 2 -2 17 0 32 5 30
10 63 7 63 -7 0 -4 -21 -8 -47 -8 -68 -1 -75 -3 -128 -48 l-47 -40 42 -108
c38 -96 41 -113 35 -162 -8 -64 -12 -65 -119 -34 -38 11 -72 17 -75 15 -2 -3
1 -5 8 -5 9 0 11 -8 8 -22 -3 -11 1 -34 9 -50 8 -16 10 -28 4 -28 -5 0 -10 3
-10 8 0 4 -12 8 -28 8 -32 2 -101 20 -121 33 -12 8 -13 14 -3 36 7 16 17 23
24 19 8 -5 9 -2 5 9 -3 9 -1 19 5 23 12 7 -1 16 -56 39 l-35 15 5 -47 c4 -41
2 -45 -9 -28 -13 17 -14 17 -20 -4 -3 -12 0 -24 8 -29 8 -4 16 -32 19 -65 6
-59 3 -62 -41 -56 -7 1 -25 -27 -22 -37 0 -3 -10 -18 -24 -32 -22 -24 -23 -30
-12 -56 10 -23 13 -25 19 -11 3 10 12 15 21 11 8 -3 15 -1 15 4 0 9 -22 15
-43 11 -5 -1 -5 3 -2 9 4 6 13 9 20 6 10 -3 13 3 12 21 -1 14 4 28 11 30 7 3
12 -4 12 -17 0 -12 4 -19 9 -16 12 8 -24 -141 -39 -159 -11 -13 103 -15 1043
-15 l1055 0 10 28 c6 15 18 51 26 79 14 51 14 54 -7 80 -27 33 -38 57 -65 143
-19 58 -51 181 -56 213 -1 7 -11 37 -23 67 -27 72 -49 210 -34 219 7 5 4 12
-7 22 -12 10 -26 54 -41 125 -39 189 -66 236 -137 250 -55 10 -171 -11 -279
-50 -55 -20 -110 -36 -123 -36 -32 0 -159 -35 -216 -60 -26 -11 -55 -20 -65
-20 -9 0 -25 -6 -36 -13 -11 -7 -42 -22 -70 -32 -27 -10 -72 -29 -99 -42 l-49
-25 6 82 c6 77 9 85 46 129 l40 48 -19 129 c-21 146 -36 304 -50 544 -11 178
-24 282 -47 373 -16 65 -11 108 19 147 10 14 33 45 51 70 18 25 43 50 56 57
24 11 23 11 -15 31 -59 30 -85 36 -79 19 10 -24 -165 -54 -212 -36 l-28 10 25
19 c42 33 8 22 -45 -14z m188 -1096 c28 -31 38 -68 15 -54 -10 6 -10 5 -1 -8
11 -12 9 -21 -10 -48 -27 -41 -68 -54 -113 -35 -39 16 -54 41 -54 90 0 29 7
44 32 67 27 25 38 29 68 24 22 -3 45 -17 63 -36z m-67 -636 c-9 -6 -14 -13
-11 -16 3 -2 -1 -5 -9 -5 -7 0 -12 7 -11 16 2 9 4 16 4 16 1 1 10 1 22 1 18 0
18 -2 5 -12z m-52 -5 c-4 -7 -44 0 -44 7 0 2 11 3 24 2 14 -1 23 -5 20 -9z
m-23 -222 c-8 -8 -11 -7 -11 4 0 20 13 34 18 19 3 -7 -1 -17 -7 -23z"/>
<path d="M2114 1474 c-16 -7 -5 -44 12 -44 8 0 19 -10 24 -22 6 -16 9 -18 9
-7 1 9 -8 28 -19 41 -10 14 -16 28 -13 32 7 7 4 7 -13 0z"/>
<path d="M2041 1446 c-15 -18 -10 -78 6 -84 20 -6 27 26 9 43 -12 13 -13 21
-6 36 13 22 7 25 -9 5z"/>
<path d="M2117 1384 c-8 -8 1 -24 14 -24 5 0 9 7 9 15 0 15 -12 20 -23 9z"/>
<path d="M20 2280 l-25 -8 28 -1 c34 -1 35 -23 2 -59 -35 -37 -31 -49 16 -57
39 -7 40 -8 34 -38 -8 -37 -31 -77 -45 -77 -5 0 -13 8 -19 18 -7 12 -10 -46
-10 -185 0 -192 1 -202 19 -208 26 -8 25 -30 0 -48 -19 -13 -20 -24 -19 -236
1 -210 3 -221 20 -216 31 10 87 -6 113 -32 15 -15 41 -27 64 -30 34 -5 41 -2
46 15 5 14 12 19 23 15 14 -6 14 -7 -1 -19 -15 -10 -11 -15 30 -38 26 -14 48
-26 50 -26 2 0 -1 11 -6 25 -8 21 -6 32 12 55 12 17 29 30 39 30 17 0 47 -28
41 -39 -2 -3 2 -7 9 -10 7 -2 10 2 7 11 -8 19 11 41 52 60 27 13 38 14 50 5
11 -9 10 -4 -3 16 -23 35 -29 65 -16 73 6 3 1 11 -12 18 -21 10 -29 25 -46 85
-3 11 -6 12 -15 3 -15 -15 -55 -15 -60 0 -2 6 -16 0 -32 -17 -31 -31 -42 -26
-51 27 -6 29 -4 39 7 43 10 4 14 18 12 41 -2 25 3 38 17 48 16 11 17 15 6 19
-8 3 -18 2 -23 -3 -5 -4 -35 -10 -66 -14 -53 -6 -58 -5 -58 14 0 28 73 62 116
54 18 -3 50 -23 73 -45 23 -22 45 -37 50 -34 17 10 9 66 -11 78 -20 13 -23 39
-8 66 6 12 6 30 0 50 -11 38 2 81 24 81 8 0 19 8 25 17 9 16 12 16 38 -7 15
-14 29 -28 31 -32 2 -5 8 -8 13 -8 12 0 12 57 -1 65 -18 11 19 68 40 62 15 -4
19 2 23 32 5 41 -2 54 -26 45 -15 -5 -15 -7 0 -22 22 -23 -2 -29 -27 -7 -17
15 -20 15 -43 1 -22 -15 -26 -15 -37 -1 -7 8 -22 15 -33 15 -20 0 -20 1 4 27
19 20 20 25 6 20 -10 -4 -37 3 -62 14 -54 26 -80 20 -71 -16 5 -18 2 -25 -8
-25 -10 0 -13 11 -11 38 2 31 6 37 26 38 13 0 32 4 41 8 9 4 23 4 30 0 11 -6
11 -5 0 8 -10 13 -11 20 -1 36 10 15 9 25 -5 52 -9 18 -16 40 -16 49 0 9 -6
34 -14 55 -12 36 -14 37 -21 17 -4 -13 -20 -28 -37 -35 -23 -10 -26 -14 -14
-19 9 -4 16 -2 16 4 0 6 6 9 13 7 17 -6 15 -33 -3 -33 -26 -1 -40 -15 -40 -41
0 -27 -6 -29 -44 -14 -30 11 -34 38 -8 47 41 15 31 43 -16 43 -12 0 -25 7 -29
16 -4 11 -13 14 -30 9 -16 -4 -33 1 -50 15 -27 21 -51 24 -93 10z m100 -60 c0
-5 -7 -10 -15 -10 -8 0 -20 -9 -27 -19 -6 -10 -18 -17 -25 -14 -22 9 -15 22
20 37 40 18 47 19 47 6z m245 -82 c31 -14 27 -34 -6 -30 -29 3 -44 17 -35 31
9 14 9 14 41 -1z m-82 -52 c7 -19 -1 -26 -30 -26 -22 0 -31 19 -16 33 11 12
41 7 46 -7z m-182 -46 c41 -23 11 -48 -35 -30 -23 9 -26 13 -16 25 15 18 25
19 51 5z m36 -77 c4 -9 1 -19 -5 -21 -21 -7 -13 -25 8 -19 25 6 80 -19 80 -38
0 -7 -7 -18 -15 -25 -25 -21 -17 -29 21 -23 l37 6 -7 -39 c-5 -21 -9 -40 -10
-41 -6 -7 -46 11 -46 21 0 6 -9 17 -20 24 -13 8 -20 23 -20 41 0 29 -1 30 -50
27 -40 -1 -49 1 -45 13 3 7 -2 22 -11 32 -29 32 -8 53 59 58 10 0 21 -7 24
-16z m14 -185 c17 -32 41 -48 62 -42 34 11 67 -46 35 -59 -7 -3 4 -6 25 -6 24
-1 37 -6 37 -14 0 -17 -73 -42 -90 -32 -15 9 -60 -33 -54 -50 3 -7 -4 -15 -14
-17 -15 -4 -25 4 -41 32 -11 21 -21 46 -21 56 0 11 -14 28 -30 39 -27 18 -42
55 -22 55 14 0 63 -37 78 -59 8 -11 22 -21 30 -21 8 0 14 -4 14 -10 0 -5 11
-10 25 -10 14 0 25 5 25 10 0 6 -9 10 -19 10 -31 0 -36 21 -10 41 l24 19 -37
0 c-28 0 -40 5 -49 23 -7 12 -19 26 -27 31 -12 7 -12 10 -1 17 24 15 48 10 60
-13z m-65 -333 c17 -42 17 -45 0 -45 -27 0 -70 29 -71 49 -1 11 3 17 11 14 6
-2 15 0 19 6 12 20 26 11 41 -24z m368 -94 c3 -4 -1 -16 -8 -27 -8 -10 -12
-24 -9 -31 4 -9 -5 -10 -33 -6 -22 4 -35 2 -31 -3 3 -6 2 -16 -2 -23 -6 -9
-11 -10 -15 -2 -4 6 -3 11 2 11 5 0 8 12 8 28 -2 35 10 51 33 45 10 -3 22 0
25 6 9 13 23 14 30 2z m-154 -5 c0 -3 -4 -8 -10 -11 -5 -3 -10 -1 -10 4 0 6 5
11 10 11 6 0 10 -2 10 -4z m-190 -120 c0 -22 -61 -50 -72 -34 -20 32 -7 48 39
48 22 0 33 -5 33 -14z m250 -33 c0 -28 -15 -44 -33 -37 -18 7 -23 24 -7 24 6
0 10 7 10 15 0 8 7 15 15 15 8 0 15 -8 15 -17z m79 -10 c0 -25 -1 -25 -8 -8
-5 11 -7 23 -4 28 8 14 13 7 12 -20z"/>
<path d="M635 2044 c-19 -45 -19 -44 3 -44 9 0 23 9 30 20 9 15 19 19 37 14
19 -5 25 -2 25 10 0 9 -8 16 -19 16 -11 0 -23 5 -26 10 -13 21 -35 9 -50 -26z"/>
<path d="M2660 1956 c0 -9 -4 -16 -10 -16 -5 0 -1 -9 10 -20 11 -11 20 -24 20
-30 0 -5 9 -10 20 -10 15 0 20 7 20 26 0 21 -4 25 -17 19 -15 -5 -16 -4 -5 6
15 16 16 33 2 24 -6 -4 -17 -1 -25 5 -12 10 -15 9 -15 -4z"/>
<path d="M658 1875 c-7 -35 6 -40 26 -11 14 22 14 25 0 30 -22 8 -21 9 -26
-19z"/>
<path d="M759 1885 c-10 -9 8 -77 23 -86 21 -14 28 -10 28 15 0 15 -7 26 -19
29 -11 2 -21 15 -23 27 -1 12 -6 19 -9 15z"/>
<path d="M2824 1856 c-8 -9 -5 -20 12 -42 17 -21 24 -24 24 -12 0 9 2 22 5 30
7 19 -27 39 -41 24z"/>
<path d="M885 1750 c3 -5 8 -10 11 -10 2 0 4 5 4 10 0 6 -5 10 -11 10 -5 0 -7
-4 -4 -10z"/>
<path d="M2861 1720 c0 -8 4 -22 9 -30 12 -18 12 -2 0 25 -6 13 -9 15 -9 5z"/>
<path d="M1481 1700 c0 -15 38 -91 39 -79 0 4 -9 26 -20 50 -11 24 -19 37 -19
29z"/>
<path d="M2678 1562 c-9 -67 -34 -108 -97 -158 -30 -23 -50 -47 -50 -59 0 -15
18 0 69 55 72 78 94 123 88 183 -2 25 -5 21 -10 -21z"/>
<path d="M1531 1580 c0 -8 4 -24 9 -35 5 -13 9 -14 9 -5 0 8 -4 24 -9 35 -5
13 -9 14 -9 5z"/>
<path d="M835 1570 c3 -5 8 -10 11 -10 2 0 4 5 4 10 0 6 -5 10 -11 10 -5 0 -7
-4 -4 -10z"/>
<path d="M500 1546 c0 -9 5 -16 10 -16 6 0 10 4 10 9 0 6 -4 13 -10 16 -5 3
-10 -1 -10 -9z"/>
<path d="M860 1524 c0 -16 5 -24 13 -22 18 7 20 35 2 41 -11 5 -15 0 -15 -19z"/>
<path d="M362 1460 c-16 -26 -16 -26 16 -25 33 0 75 22 67 36 -11 17 -70 10
-83 -11z"/>
<path d="M956 1434 c-4 -10 1 -25 10 -35 14 -16 15 -25 5 -65 -10 -38 -10 -49
1 -56 25 -16 41 -4 43 32 2 68 -43 165 -59 124z"/>
<path d="M810 1325 c0 -35 3 -43 15 -39 10 4 15 20 15 45 0 28 -4 39 -15 39
-11 0 -15 -12 -15 -45z"/>
<path d="M560 1346 c0 -8 5 -18 10 -21 6 -3 10 1 10 9 0 8 -4 18 -10 21 -5 3
-10 -1 -10 -9z"/>
<path d="M964 1218 c-5 -7 -7 -25 -5 -40 2 -19 -5 -31 -23 -43 -20 -13 -26
-26 -26 -52 0 -20 -4 -32 -10 -28 -5 3 -10 15 -10 26 0 10 -4 19 -10 19 -5 0
-10 7 -10 15 0 8 5 15 10 15 21 0 21 29 1 49 -28 28 -34 27 -78 -12 -21 -19
-46 -36 -55 -40 -15 -5 -45 -80 -39 -100 1 -5 -8 -11 -19 -14 -22 -6 -44 -48
-34 -64 11 -19 51 -9 64 17 8 14 22 30 31 35 11 5 15 16 12 29 -3 13 1 22 12
26 21 8 40 -10 29 -28 -5 -7 -7 -23 -5 -35 2 -16 -5 -26 -23 -34 -30 -14 -34
-29 -7 -29 10 0 30 -12 44 -26 14 -14 30 -23 34 -21 5 3 15 2 23 -3 11 -7 8
-11 -13 -19 -23 -9 -38 -7 -78 10 -47 20 -50 21 -75 4 -26 -17 -27 -16 -51 10
-16 17 -24 34 -21 49 6 29 -17 49 -47 42 -28 -7 -39 6 -30 34 6 18 12 20 56
14 33 -4 49 -3 49 4 0 13 -43 44 -56 41 -24 -4 -36 2 -30 16 4 12 -3 15 -29
15 -19 0 -35 -5 -35 -10 0 -7 -18 -9 -47 -6 -56 7 -74 -2 -67 -30 4 -16 12
-19 33 -16 17 2 34 -3 45 -13 16 -16 15 -18 -5 -36 -29 -25 -37 -24 -51 6 -14
30 -28 32 -35 4 -5 -18 -11 -20 -41 -14 -20 4 -54 16 -75 26 -27 14 -48 18
-69 14 -27 -6 -29 -5 -24 13 10 29 -4 33 -58 17 l-47 -14 -10 27 c-5 15 -12
33 -14 40 -2 6 -14 12 -25 12 -20 0 -20 -3 -18 -492 l3 -493 22 -10 c33 -14
44 -85 13 -85 -5 0 -12 9 -15 20 -10 31 -25 24 -25 -12 0 -25 3 -29 10 -18 8
12 10 11 10 -7 0 -22 4 -23 69 -23 76 0 94 10 56 30 -28 15 -31 30 -12 49 10
10 7 11 -15 6 -33 -8 -46 12 -28 45 10 18 13 20 23 7 16 -19 50 -27 70 -16 9
5 18 6 21 1 9 -15 93 -6 111 12 35 35 77 -1 59 -51 -9 -28 -11 -28 -92 -28
-63 0 -85 -4 -92 -15 -5 -8 -8 -19 -7 -25 5 -14 57 -19 57 -6 0 6 9 11 21 11
11 0 18 -4 14 -9 -8 -13 68 -1 77 12 4 7 12 6 23 -3 13 -11 19 -10 39 9 12 11
25 19 28 16 10 -11 67 -12 65 -2 -1 6 8 12 21 13 35 2 39 14 6 16 -45 2 -77 4
-96 6 -23 2 -24 40 -2 49 9 3 24 2 33 -3 23 -14 48 -6 54 18 8 29 1 38 -30 38
-19 0 -24 4 -19 16 3 8 -3 24 -13 36 -11 11 -17 27 -14 35 4 11 8 11 13 3 4
-7 23 -10 45 -8 45 4 68 -20 49 -49 -9 -14 -8 -25 2 -46 15 -29 28 -34 40 -16
3 6 17 8 30 5 17 -5 24 -2 24 8 0 16 51 56 72 56 11 0 11 -2 -1 -9 -8 -5 -9
-11 -3 -15 5 -3 13 1 16 10 3 8 10 13 16 9 17 -10 78 6 85 22 3 9 -3 24 -15
35 -18 17 -27 38 -16 38 2 0 19 -6 37 -14 27 -12 36 -12 53 -1 15 10 34 11 63
6 47 -9 75 6 50 27 -15 13 -75 18 -98 8 -10 -4 -20 -2 -24 4 -5 8 -13 6 -26
-6 -16 -14 -23 -15 -45 -5 -15 6 -34 9 -44 6 -10 -3 -21 -1 -25 5 -3 6 -12 7
-18 3 -16 -10 -47 -11 -47 -2 0 13 29 18 34 6 2 -7 5 3 5 21 1 17 -3 32 -8 32
-5 0 -22 5 -38 12 -15 6 -31 11 -35 10 -17 -4 -6 7 28 27 43 26 76 27 98 3 23
-27 82 -16 99 18 8 16 23 26 40 28 31 4 36 28 7 37 -15 5 -20 15 -20 45 0 21
4 41 10 45 11 7 2 35 -12 35 -12 0 -38 26 -38 39 0 18 20 23 37 10 8 -8 35
-14 59 -14 42 -1 44 0 50 31 3 17 1 41 -5 53 -11 19 -21 23 -76 25 -25 2 -31
29 -10 46 8 7 15 23 15 35 0 24 36 42 43 21 3 -6 8 -3 12 8 5 10 3 26 -3 36
-9 14 -8 21 4 31 10 8 13 22 8 45 -4 21 -2 34 4 34 6 0 12 30 14 68 2 53 -1
73 -13 86 -14 14 -19 15 -25 4z m-34 -177 c0 -15 -5 -18 -22 -13 -19 5 -20 7
-5 10 9 2 17 8 17 13 0 5 2 9 5 9 3 0 5 -9 5 -19z m-857 -30 c5 -22 -1 -33
-14 -25 -12 7 -12 44 0 44 5 0 11 -9 14 -19z m-33 -52 c-7 -11 -14 -18 -17
-15 -8 8 5 36 17 36 7 0 7 -6 0 -21z m834 -45 c9 -24 2 -26 -12 -4 -7 11 -8
20 -3 20 5 0 12 -7 15 -16z m-54 -107 c13 4 27 -3 40 -18 30 -37 26 -52 -12
-44 -54 11 -98 26 -98 34 0 4 -19 7 -41 7 -34 -1 -43 3 -50 22 -12 31 15 41
54 18 29 -16 30 -16 45 5 l15 22 13 -26 c10 -18 19 -24 34 -20z m-200 9 c0 -3
-4 -8 -10 -11 -5 -3 -10 -1 -10 4 0 6 5 11 10 11 6 0 10 -2 10 -4z m128 -75
c18 -11 11 -45 -10 -49 -17 -3 -34 30 -23 48 7 12 16 12 33 1z m224 -13 c-17
-8 -26 -8 -34 0 -9 9 -4 12 23 11 32 0 33 -1 11 -11z m-762 -8 c0 -5 -4 -10
-10 -10 -5 0 -10 5 -10 10 0 6 5 10 10 10 6 0 10 -4 10 -10z m490 -35 c10 -12
8 -16 -15 -25 -38 -14 -53 -1 -24 21 29 22 24 22 39 4z m-279 -51 c18 -21 4
-28 -32 -15 -25 8 -35 8 -52 -4 -12 -8 -25 -15 -29 -15 -11 0 -10 34 2 46 13
13 97 5 111 -12z m423 -4 c-16 -6 -15 -8 7 -23 17 -13 19 -17 7 -17 -9 0 -18
6 -21 13 -2 6 -8 9 -12 5 -10 -10 13 -38 31 -38 26 0 14 -18 -16 -25 l-30 -7
20 -25 c11 -14 20 -32 20 -39 0 -21 -38 -17 -71 7 -16 11 -37 20 -46 19 -69
-4 -96 -8 -101 -17 -12 -18 -50 -33 -66 -27 -21 8 -20 33 0 56 18 19 17 20
-36 32 -17 4 -32 -1 -48 -17 -28 -26 -57 -14 -57 24 0 21 7 25 80 39 60 12 81
20 83 33 5 23 42 22 42 0 0 -15 2 -16 10 -3 8 12 10 10 10 -8 0 -18 -5 -23
-22 -20 -20 3 -23 -2 -25 -29 -1 -24 2 -30 13 -26 8 3 14 11 14 19 0 8 5 14
11 14 5 0 8 -4 4 -9 -6 -11 63 -33 77 -25 14 9 9 20 -16 34 l-24 13 33 34 c28
29 37 33 54 24 27 -15 41 -14 41 4 0 12 4 13 26 3 22 -10 23 -13 8 -18z m-564
-68 c0 -14 -11 -21 -26 -15 -21 8 -17 23 6 23 11 0 20 -4 20 -8z m120 -202 c0
-5 -7 -10 -15 -10 -8 0 -15 5 -15 10 0 6 7 10 15 10 8 0 15 -4 15 -10z m150
-24 c0 -21 -27 -38 -50 -31 -27 9 -26 33 3 38 41 8 47 7 47 -7z m-206 -91 c4
-11 2 -15 -6 -12 -7 2 -12 9 -11 16 2 6 -8 13 -21 17 -23 5 -50 46 -39 58 7 7
68 -56 77 -79z m325 -22 c1 -13 -4 -23 -9 -23 -16 0 -60 47 -60 64 0 8 -5 16
-12 18 -6 2 -8 10 -4 16 11 18 84 -47 85 -75z"/>
<path d="M907 1213 c-10 -9 -9 -23 2 -23 5 0 11 7 15 15 5 15 -5 20 -17 8z"/>
<path d="M501 1154 c0 -11 3 -14 6 -6 3 7 2 16 -1 19 -3 4 -6 -2 -5 -13z"/>
<path d="M76 1113 c-3 -3 -3 -10 0 -14 7 -12 34 -11 34 0 0 11 -26 22 -34 14z"/>
<path d="M665 1079 c-4 -6 -4 -13 -1 -16 8 -8 36 5 36 17 0 13 -27 13 -35 -1z"/>
<path d="M3432 903 c-6 -3 -10 -9 -6 -14 7 -12 44 -12 44 0 0 11 -21 19 -38
14z"/>
<path d="M975 840 c3 -5 8 -10 11 -10 2 0 4 5 4 10 0 6 -5 10 -11 10 -5 0 -7
-4 -4 -10z"/>
<path d="M971 506 c-9 -11 -6 -15 14 -18 32 -7 40 4 15 20 -14 9 -21 8 -29 -2z"/>
<path d="M1392 444 c-13 -53 -10 -86 4 -50 4 10 18 22 33 28 24 9 25 10 9 22
-10 7 -18 23 -18 35 0 40 -15 21 -28 -35z"/>
<path d="M991 441 c-12 -7 -10 -14 8 -36 l21 -28 0 27 c0 14 0 29 1 33 1 12
-15 14 -30 4z"/>
<path d="M768 413 c-3 -4 -2 -19 2 -33 l6 -25 7 25 c6 24 -6 51 -15 33z"/>
<path d="M886 405 c-3 -9 0 -15 9 -15 8 0 15 7 15 15 0 8 -4 15 -9 15 -5 0
-11 -7 -15 -15z"/>
<path d="M925 390 c3 -5 11 -10 16 -10 6 0 7 5 4 10 -3 6 -11 10 -16 10 -6 0
-7 -4 -4 -10z"/>
<path d="M1397 333 c-15 -29 -13 -53 4 -53 5 0 7 12 4 28 -3 15 -2 21 1 15 9
-20 24 -15 24 6 0 32 -18 34 -33 4z"/>
<path d="M935 270 c-4 -6 -14 -10 -25 -10 -17 0 -36 -27 -25 -38 3 -3 15 -1
28 5 12 6 30 14 40 17 9 3 17 10 17 15 0 13 -28 22 -35 11z"/>
<path d="M1367 255 c-6 -13 1 -25 14 -25 14 0 18 28 4 34 -7 2 -16 -1 -18 -9z"/>
<path d="M1015 220 c3 -5 13 -10 21 -10 8 0 12 5 9 10 -3 6 -13 10 -21 10 -8
0 -12 -4 -9 -10z"/>
<path d="M707 173 c-14 -13 -6 -24 15 -21 27 4 36 28 11 28 -11 0 -23 -3 -26
-7z"/>
<path d="M795 160 c-3 -5 -1 -10 4 -10 6 0 11 5 11 10 0 6 -2 10 -4 10 -3 0
-8 -4 -11 -10z"/>
<path d="M970 118 c0 -29 -17 -48 -36 -41 -8 3 -14 -1 -14 -8 0 -11 -2 -11
-10 1 -8 12 -10 12 -15 -2 -12 -30 5 -40 25 -16 l19 23 1 -27 c0 -36 21 -36
42 0 24 41 27 85 6 90 -13 2 -18 -3 -18 -20z"/>
<path d="M1378 53 c4 -35 5 -36 14 -14 9 26 4 51 -10 51 -4 0 -6 -17 -4 -37z"/>
<path d="M438 3 c6 -2 18 -2 25 0 6 3 1 5 -13 5 -14 0 -19 -2 -12 -5z"/>
<path d="M538 3 c7 -3 16 -2 19 1 4 3 -2 6 -13 5 -11 0 -14 -3 -6 -6z"/>
</g>
</svg>
