<?xml version="1.0" standalone="no"?>
<!DOCTYPE svg PUBLIC "-//W3C//DTD SVG 20010904//EN"
 "http://www.w3.org/TR/2001/REC-SVG-20010904/DTD/svg10.dtd">
<svg version="1.0" xmlns="http://www.w3.org/2000/svg"
 width="500.000000pt" height="500.000000pt" viewBox="0 0 500.000000 500.000000"
 preserveAspectRatio="xMidYMid meet">

<g transform="translate(0.000000,500.000000) scale(0.100000,-0.100000)"
fill="#000000" stroke="none">
<path d="M2 4725 c3 -18 9 -20 68 -17 37 1 71 -2 80 -8 11 -9 -1 -10 -50 -7
-54 5 -60 4 -36 -5 21 -8 56 -8 120 0 93 11 266 6 314 -8 l27 -8 -29 -1 c-16
-1 -27 -3 -25 -6 3 -2 92 -7 199 -10 107 -3 203 -8 213 -11 9 -3 17 -1 17 4 0
6 -18 13 -39 17 -35 6 -67 35 -39 35 20 0 83 -24 90 -35 5 -6 103 -10 261 -11
215 -1 258 -3 287 -17 40 -21 40 -21 40 -2 0 8 -4 15 -10 15 -5 0 -10 7 -10
15 0 19 4 19 39 1 15 -8 38 -12 50 -9 17 4 24 1 28 -16 4 -17 13 -21 44 -21
33 0 39 3 39 20 0 18 6 21 48 20 26 0 95 0 153 0 58 0 121 -5 140 -10 41 -12
74 -12 44 -1 -19 8 -19 8 0 19 18 9 98 2 110 -10 3 -2 -11 -11 -30 -18 -19 -8
-35 -19 -35 -26 0 -18 -30 -22 -138 -18 -81 4 -101 2 -105 -10 -4 -9 1 -17 11
-20 17 -4 148 -9 209 -7 18 0 35 -4 38 -9 11 -18 35 -11 35 10 0 15 -7 20 -27
20 -14 0 -24 3 -20 6 3 3 26 6 51 6 25 0 44 4 41 9 -4 5 36 6 98 3 73 -5 106
-3 111 5 11 16 96 14 96 -3 0 -15 50 -26 115 -26 60 0 22 19 -40 21 -27 0 -44
3 -37 6 6 2 12 11 12 19 0 10 15 14 59 14 33 0 62 -4 65 -8 3 -5 19 -7 36 -4
32 5 43 -14 14 -25 -13 -5 -12 -8 6 -25 15 -14 38 -20 88 -22 87 -4 85 -4 78
-21 -8 -22 11 -18 35 6 15 15 28 19 48 14 16 -3 52 -7 80 -7 28 -1 51 -5 51
-10 0 -4 8 -8 18 -9 15 0 14 -2 -3 -9 -14 -7 -7 -7 20 -3 22 4 48 6 58 5 9 0
15 3 12 8 -3 5 -21 6 -40 3 -23 -4 -35 -2 -35 6 0 6 -7 11 -15 11 -8 0 -15 5
-15 10 0 6 -7 10 -16 10 -10 0 -14 6 -10 15 4 11 -1 15 -19 15 -13 0 -27 5
-30 10 -8 14 -82 13 -87 -1 -3 -8 -16 -6 -42 5 -33 14 -37 14 -32 1 4 -10 -1
-15 -16 -15 -21 0 -21 0 -2 21 18 20 26 21 114 16 52 -3 105 -9 117 -12 18 -6
23 -3 23 10 0 14 7 16 38 12 231 -29 252 -30 336 -17 64 10 91 10 116 1 45
-15 101 -13 124 4 13 10 24 11 37 5 10 -6 33 -10 53 -10 42 0 57 -17 19 -22
-19 -2 -7 -7 37 -15 36 -6 79 -15 97 -21 25 -8 31 -8 26 3 -2 8 -10 16 -16 18
-7 2 2 2 18 0 l30 -5 -29 26 -29 26 34 -6 c19 -4 38 -13 42 -21 4 -7 24 -13
42 -13 37 0 47 13 19 24 -9 4 -15 9 -12 11 9 9 226 17 231 8 3 -5 -17 -9 -45
-8 -45 0 -51 -2 -53 -22 -2 -29 25 -33 155 -22 147 11 208 22 191 33 -17 11
69 46 113 46 47 0 107 -22 102 -37 -3 -7 -1 -13 3 -13 5 0 11 5 13 11 2 7 11
7 29 -1 18 -8 36 -9 60 -2 l34 10 -32 1 c-17 1 -34 5 -37 9 -2 4 27 6 65 4
l69 -4 0 35 c0 31 -3 35 -32 41 -17 3 -860 7 -1872 8 -1013 0 -1942 3 -2066 4
-124 2 -406 5 -628 6 -398 3 -403 3 -400 -17z m1916 -12 c-60 -2 -156 -2 -215
0 -60 1 -11 3 107 3 118 0 167 -2 108 -3z m379 -4 c-59 -4 -138 -4 -175 1 -52
6 -27 7 108 7 169 0 171 0 67 -8z m806 4 c-13 -2 -33 -2 -45 0 -13 2 -3 4 22
4 25 0 35 -2 23 -4z m432 -3 c24 -6 17 -8 -32 -9 -36 0 -63 3 -63 9 0 11 50
11 95 0z m543 3 c-16 -2 -40 -2 -55 0 -16 2 -3 4 27 4 30 0 43 -2 28 -4z m237
-2 c-49 -3 -106 -3 -125 0 -19 4 21 6 90 6 122 0 123 -1 35 -6z m308 2 c-13
-2 -33 -2 -45 0 -13 2 -3 4 22 4 25 0 35 -2 23 -4z m265 0 c-43 -2 -113 -2
-155 0 -43 1 -8 3 77 3 85 0 120 -2 78 -3z m-2080 -10 c-32 -2 -84 -2 -115 0
-32 2 -6 3 57 3 63 0 89 -1 58 -3z m1010 0 c-16 -2 -40 -2 -55 0 -16 2 -3 4
27 4 30 0 43 -2 28 -4z m-3060 -15 c23 1 42 -2 42 -8 0 -11 -81 -13 -117 -4
-13 4 -20 10 -17 16 3 5 15 5 27 1 12 -4 41 -6 65 -5z m2825 -5 c-7 -2 -21 -2
-30 0 -10 3 -4 5 12 5 17 0 24 -2 18 -5z m592 -3 c3 -5 1 -10 -4 -10 -6 0 -11
5 -11 10 0 6 2 10 4 10 3 0 8 -4 11 -10z m-467 -10 c6 0 12 -4 12 -10 0 -5 -9
-10 -20 -10 -11 0 -20 4 -20 9 0 5 -6 11 -12 14 -7 2 -4 3 7 1 11 -2 26 -4 33
-4z m881 1 c16 -10 -70 -21 -162 -20 -111 1 -41 16 128 27 11 1 26 -2 34 -7z
m-2289 -31 c0 -5 -22 -10 -49 -10 -28 0 -53 -4 -56 -10 -3 -5 -13 -10 -21 -10
-8 0 -14 5 -14 10 0 6 9 10 19 10 11 0 23 5 26 10 3 6 26 10 51 10 24 0 44 -4
44 -10z m527 -8 c-10 -10 -14 -22 -10 -25 3 -4 1 -7 -5 -7 -7 0 -12 7 -12 15
0 8 -6 16 -12 16 -7 1 1 5 17 9 17 4 32 8 34 9 2 0 -3 -7 -12 -17z m1258 -2
c3 -6 -1 -7 -9 -4 -18 7 -21 14 -7 14 6 0 13 -4 16 -10z m465 0 c-8 -5 -28 -9
-45 -9 -29 1 -29 1 -5 9 14 4 34 8 45 9 16 1 17 -1 5 -9z m-1510 -35 c0 -8 -9
-15 -20 -15 -13 0 -18 5 -14 15 4 8 12 15 20 15 8 0 14 -7 14 -15z m1423 8
c-13 -2 -33 -2 -45 0 -13 2 -3 4 22 4 25 0 35 -2 23 -4z m-1504 -17 c-2 -2
-22 -6 -44 -9 -27 -4 -35 -3 -25 3 14 9 79 15 69 6z"/>
<path d="M1800 4642 c0 -12 42 -20 147 -29 53 -4 83 -2 83 4 0 6 -42 13 -92
17 -51 4 -103 10 -115 13 -13 3 -23 1 -23 -5z"/>
<path d="M905 4620 c3 -5 13 -10 21 -10 8 0 12 5 9 10 -3 6 -13 10 -21 10 -8
0 -12 -4 -9 -10z"/>
<path d="M1218 4623 c12 -2 32 -2 45 0 12 2 2 4 -23 4 -25 0 -35 -2 -22 -4z"/>
<path d="M4144 4619 c-3 -6 -2 -14 3 -18 5 -3 19 -19 31 -35 12 -16 22 -27 23
-25 6 32 2 69 -8 69 -7 0 -13 5 -13 10 0 14 -27 13 -36 -1z"/>
<path d="M2640 4610 c0 -5 5 -10 11 -10 5 0 7 5 4 10 -3 6 -8 10 -11 10 -2 0
-4 -4 -4 -10z"/>
<path d="M4923 4593 c9 -2 23 -2 30 0 6 3 -1 5 -18 5 -16 0 -22 -2 -12 -5z"/>
<path d="M3898 4563 c7 -3 16 -2 19 1 4 3 -2 6 -13 5 -11 0 -14 -3 -6 -6z"/>
<path d="M2225 4539 c4 -6 9 -8 12 -5 3 2 16 1 29 -4 13 -5 26 -5 29 -1 6 11
-19 21 -51 21 -15 0 -23 -4 -19 -11z"/>
<path d="M3840 4541 c0 -3 -21 -5 -46 -2 -26 2 -51 -2 -57 -8 -9 -9 15 -11
100 -9 61 2 110 4 108 6 -6 6 -105 19 -105 13z"/>
<path d="M3980 4540 c0 -5 5 -10 10 -10 6 0 10 5 10 10 0 6 -4 10 -10 10 -5 0
-10 -4 -10 -10z"/>
<path d="M4058 4543 c7 -3 16 -2 19 1 4 3 -2 6 -13 5 -11 0 -14 -3 -6 -6z"/>
<path d="M1040 4519 c0 -6 -8 -8 -19 -4 -10 3 -29 1 -42 -4 -19 -8 -8 -10 51
-11 41 -1 89 -3 106 -4 18 -2 38 0 45 5 9 5 -10 9 -51 10 -51 1 -59 3 -35 9
28 7 27 8 -12 9 -25 0 -43 -4 -43 -10z"/>
<path d="M2328 4523 c7 -3 16 -2 19 1 4 3 -2 6 -13 5 -11 0 -14 -3 -6 -6z"/>
<path d="M2548 4523 c12 -2 30 -2 40 0 9 3 -1 5 -23 4 -22 0 -30 -2 -17 -4z"/>
<path d="M1428 4506 c-9 -9 -27 -16 -40 -16 -13 0 -30 -5 -38 -11 -15 -11 -1
-10 132 10 28 4 52 3 58 -3 6 -6 22 -5 47 2 21 7 52 13 68 15 17 2 5 5 -25 6
-30 0 -84 4 -121 7 -52 5 -68 3 -81 -10z"/>
<path d="M2623 4513 c9 -2 23 -2 30 0 6 3 -1 5 -18 5 -16 0 -22 -2 -12 -5z"/>
<path d="M3368 4513 c7 -3 16 -2 19 1 4 3 -2 6 -13 5 -11 0 -14 -3 -6 -6z"/>
<path d="M3448 4513 c6 -2 18 -2 25 0 6 3 1 5 -13 5 -14 0 -19 -2 -12 -5z"/>
<path d="M253 4503 c9 -2 25 -2 35 0 9 3 1 5 -18 5 -19 0 -27 -2 -17 -5z"/>
<path d="M338 4503 c6 -2 18 -2 25 0 6 3 1 5 -13 5 -14 0 -19 -2 -12 -5z"/>
<path d="M1293 4503 c9 -2 23 -2 30 0 6 3 -1 5 -18 5 -16 0 -22 -2 -12 -5z"/>
<path d="M1768 4503 c6 -2 18 -2 25 0 6 3 1 5 -13 5 -14 0 -19 -2 -12 -5z"/>
<path d="M4947 4504 c-4 -5 -416 -16 -482 -13 -67 3 -137 3 -500 -1 l-250 -3
182 -6 c100 -3 185 -10 190 -14 4 -5 -57 -7 -137 -5 -80 3 -317 1 -527 -5
-264 -6 -391 -6 -410 1 -22 9 -14 10 40 5 47 -4 67 -2 67 6 0 8 -47 10 -162 9
-138 -1 -150 -3 -78 -8 l85 -6 -85 -4 c-47 -2 -182 -3 -300 -2 -118 1 -683 4
-1255 7 -572 3 -1104 8 -1183 11 l-142 7 0 -141 0 -140 102 -6 c57 -3 587 -13
1178 -21 591 -8 1356 -20 1700 -25 344 -6 727 -10 853 -10 l227 0 10 -25 c12
-32 11 -276 -1 -292 -7 -7 -6 -13 0 -17 6 -4 10 -115 10 -289 l1 -283 -33 -36
c-17 -20 -54 -50 -81 -67 l-50 -31 96 0 c68 0 98 -4 101 -12 3 -7 6 59 6 148
2 320 14 680 23 641 15 -71 38 -281 39 -362 2 -65 3 -73 9 -40 4 22 8 31 10
20 2 -11 6 0 10 25 4 26 8 -47 8 -172 2 -221 -5 -273 -33 -262 -10 4 -15 0
-15 -11 0 -11 5 -15 14 -12 11 5 16 -4 19 -36 l4 -42 1 48 c1 34 8 54 21 65
19 16 20 41 24 565 3 302 8 551 11 555 3 3 6 -13 6 -35 0 -37 3 -41 28 -44 15
-2 179 -3 365 -1 l337 3 0 159 0 160 -222 0 c-122 0 -219 2 -216 5 3 3 102 6
221 6 171 1 217 3 217 14 0 11 -44 27 -53 19z m-484 -41 c-13 -2 -33 -2 -45 0
-13 2 -3 4 22 4 25 0 35 -2 23 -4z m-246 -885 c-3 -7 -5 -2 -5 12 0 14 2 19 5
13 2 -7 2 -19 0 -25z m-20 -30 c-2 -13 -4 -5 -4 17 -1 22 1 32 4 23 2 -10 2
-28 0 -40z m-100 -370 c-2 -13 -4 -5 -4 17 -1 22 1 32 4 23 2 -10 2 -28 0 -40z"/>
<path d="M1208 4493 c7 -3 16 -2 19 1 4 3 -2 6 -13 5 -11 0 -14 -3 -6 -6z"/>
<path d="M1890 4489 c-22 -5 4 -7 75 -4 61 2 146 0 190 -5 47 -6 81 -6 83 -1
2 5 45 7 96 4 64 -4 95 -2 100 6 9 13 -487 14 -544 0z"/>
<path d="M1683 4483 c9 -2 25 -2 35 0 9 3 1 5 -18 5 -19 0 -27 -2 -17 -5z"/>
<path d="M2461 4486 c7 -8 118 -10 126 -3 3 4 -24 7 -62 7 -38 0 -66 -2 -64
-4z"/>
<path d="M2600 4480 c0 -5 4 -10 9 -10 6 0 13 5 16 10 3 6 -1 10 -9 10 -9 0
-16 -4 -16 -10z"/>
<path d="M2649 4479 c-9 -5 12 -9 53 -9 37 0 70 5 73 10 8 12 -107 11 -126 -1z"/>
<path d="M3245 4480 c-75 -4 -32 -6 137 -6 136 1 239 4 230 7 -21 8 -220 7
-367 -1z"/>
<path d="M2582 4120 c-19 -12 -42 -18 -52 -15 -10 3 -21 2 -24 -3 -3 -5 -33
-12 -67 -16 -33 -4 -72 -12 -87 -17 -39 -15 -217 -195 -247 -251 -14 -26 -28
-67 -30 -90 -2 -22 -9 -46 -14 -51 -6 -6 -11 -19 -11 -29 0 -10 -4 -18 -8 -18
-12 0 -49 -69 -61 -116 -24 -89 -19 -336 8 -368 5 -6 12 -28 16 -48 8 -40 25
-43 25 -5 0 27 16 54 27 44 4 -4 2 -17 -5 -27 -16 -26 -15 -65 1 -82 9 -8 14
-40 15 -83 1 -39 4 -87 8 -107 l6 -38 -214 0 c-153 0 -217 3 -226 12 -9 9 -12
-66 -12 -340 0 -307 2 -351 15 -346 12 5 15 52 17 313 l3 306 212 3 212 2 7
-22 c3 -13 24 -53 45 -90 22 -37 42 -81 45 -98 4 -16 10 -30 15 -30 5 0 9 -6
9 -12 1 -7 17 -26 38 -41 20 -15 61 -51 90 -79 48 -47 51 -52 37 -68 -21 -23
-11 -64 18 -78 37 -19 136 -34 175 -27 20 3 66 16 102 28 50 17 65 26 62 39
-2 12 8 22 33 33 21 8 41 13 45 10 4 -2 15 4 24 14 13 14 14 21 5 27 -7 4 -10
3 -7 -2 3 -5 0 -15 -7 -21 -11 -10 -13 -9 -12 7 1 11 7 22 15 25 9 3 12 13 8
29 -4 18 1 33 18 53 l24 28 1 -60 0 -60 -62 -58 c-34 -32 -79 -68 -99 -79 -20
-12 -35 -25 -31 -31 3 -5 -2 -5 -13 1 -26 13 -272 6 -290 -9 -12 -10 -23 -5
-54 20 -63 50 -45 22 22 -37 42 -36 78 -57 115 -68 94 -27 121 -15 301 139 51
44 99 92 107 108 9 16 15 56 15 96 0 66 2 72 55 153 30 47 59 90 65 97 5 7 10
19 10 28 0 15 40 16 420 14 231 -1 423 -6 426 -10 3 -5 5 -235 5 -511 0 -478
1 -505 19 -538 19 -35 19 -34 20 531 l0 566 -292 6 c-161 4 -355 7 -432 7
l-138 0 6 28 c12 49 25 96 40 147 14 46 15 47 15 17 1 -18 -4 -42 -10 -53 -6
-11 -8 -25 -6 -32 3 -7 13 7 23 31 l17 43 51 -6 c28 -3 143 -10 256 -15 214
-11 230 -12 373 -31 69 -9 87 -14 88 -28 0 -11 3 -9 9 7 8 18 17 22 54 22 52
0 114 -26 117 -49 1 -9 3 -359 5 -778 2 -440 8 -771 13 -785 6 -15 10 212 11
627 0 358 3 741 6 853 l6 202 -491 -2 c-395 -2 -491 0 -491 10 0 16 30 64 47
75 7 4 10 13 8 20 -7 16 35 64 60 68 11 2 25 15 32 28 6 14 19 28 27 33 25 14
19 28 -11 28 -22 0 -25 2 -13 10 8 5 24 7 34 4 16 -5 18 -3 11 17 -4 13 -11
57 -16 97 -5 40 -15 85 -22 100 -8 15 -14 51 -15 80 -2 62 -16 92 -69 147 -38
39 -69 91 -64 109 1 5 -5 16 -14 26 -9 9 -17 32 -20 50 -2 18 -7 35 -11 39 -4
3 -4 -2 -1 -11 4 -10 4 -18 2 -18 -12 0 -85 43 -97 58 -11 13 -11 15 2 8 8 -4
6 0 -4 8 -11 9 -27 16 -36 16 -8 0 -24 6 -35 14 -11 7 -45 19 -75 27 -44 11
-65 24 -107 66 -46 48 -55 53 -95 53 -26 0 -56 -8 -76 -20z m117 -1 c18 -6 38
-24 47 -41 22 -43 13 -43 -29 -3 -20 19 -44 35 -54 35 -10 0 -25 5 -33 10 -22
14 28 13 69 -1z m-11 -46 c34 -34 16 -41 -35 -15 -21 11 -49 24 -63 30 -22 10
-20 11 23 11 39 1 53 -4 75 -26z m555 -453 c-7 -27 -13 -25 -11 4 1 14 5 23 9
20 4 -2 5 -13 2 -24z m-423 -37 c19 -4 39 -5 44 -4 31 7 52 -134 21 -145 -23
-9 -18 -24 9 -24 14 0 40 -13 58 -30 18 -16 36 -30 40 -30 5 0 8 -5 8 -10 0
-7 -8 -7 -22 1 -30 16 -212 7 -236 -13 -9 -8 -30 -19 -45 -26 -27 -11 -27 -14
-21 -64 10 -70 46 -149 64 -138 7 4 10 15 6 25 -5 14 -3 16 11 10 10 -5 44
-15 77 -23 54 -14 63 -14 111 2 44 16 55 16 73 5 12 -8 22 -18 22 -24 0 -5 8
-1 16 10 15 19 16 15 12 -53 -2 -40 -8 -76 -13 -80 -6 -4 -11 -20 -13 -37 -4
-37 -10 -44 -22 -25 -8 13 -10 13 -10 -1 0 -18 -28 -21 -47 -6 -7 5 -13 6 -13
2 0 -4 -7 -2 -15 5 -8 6 -19 9 -24 6 -5 -4 -29 15 -53 40 -105 114 -146 146
-119 96 6 -12 11 -31 12 -44 0 -13 3 -17 6 -11 3 8 14 2 30 -18 30 -35 21 -54
-20 -44 -31 8 -57 34 -36 36 30 2 -49 21 -101 24 -30 3 -76 7 -102 11 -37 5
-48 3 -48 -8 0 -8 -18 -19 -40 -25 -50 -13 -54 4 -12 47 82 83 63 110 -22 30
-29 -27 -58 -50 -64 -50 -7 0 -12 -5 -12 -12 0 -9 -3 -9 -12 0 -18 18 -41 15
-34 -4 4 -11 2 -15 -8 -11 -8 3 -20 -1 -26 -8 -7 -8 -16 -12 -21 -9 -5 3 -14
-8 -20 -25 -12 -34 -30 -34 -21 1 4 18 2 20 -16 16 -15 -4 -23 0 -27 14 -5 14
-10 16 -20 8 -10 -8 -14 4 -19 62 -10 108 16 221 54 233 9 3 25 23 35 45 10
21 24 41 32 45 15 5 15 4 -4 -42 -3 -7 2 -16 11 -19 12 -5 10 -11 -14 -31 -51
-43 -41 -54 45 -46 41 3 75 4 75 1 0 -3 -8 -12 -17 -19 -11 -10 -14 -10 -9 -1
4 7 1 12 -8 12 -22 0 -20 -27 3 -40 11 -6 67 -9 128 -8 59 2 98 4 86 6 -34 5
-28 18 7 16 25 -2 31 2 35 24 3 15 12 40 20 55 13 25 13 32 0 58 -9 16 -19 28
-23 27 -4 0 -14 2 -22 5 -48 19 -114 37 -138 37 -15 0 -41 4 -58 9 -23 6 -40
4 -69 -10 -47 -23 -45 -23 -45 1 0 12 7 20 18 20 10 0 26 6 37 14 11 7 43 21
72 30 28 10 62 25 75 35 13 10 37 22 55 25 17 4 34 13 36 21 8 19 65 47 112
54 43 7 128 4 185 -6z m427 -15 c-3 -8 -6 -5 -6 6 -1 11 2 17 5 13 3 -3 4 -12
1 -19z m-837 -268 c0 -5 -15 -10 -32 -10 -18 0 -51 -3 -73 -6 -39 -5 -39 -5
-15 9 28 17 120 22 120 7z m499 -49 c23 -15 -3 -20 -29 -5 -22 12 -23 13 -5
13 11 1 26 -3 34 -8z m-459 -31 c0 -5 -2 -10 -4 -10 -3 0 -8 5 -11 10 -3 6 -1
10 4 10 6 0 11 -4 11 -10z m-30 -14 c0 -2 -16 -6 -35 -8 -19 -2 -35 0 -35 4 0
4 16 8 35 8 19 0 35 -2 35 -4z m855 -37 c-4 -5 -13 -9 -22 -9 -13 0 -13 3 -3
15 13 15 35 11 25 -6z m-415 -9 c24 -8 24 -8 -7 -9 -17 -1 -35 4 -38 9 -7 11
9 11 45 0z m-252 -277 c-10 -2 -26 -2 -35 0 -10 3 -2 5 17 5 19 0 27 -2 18 -5z
m-338 -32 c0 -11 -4 -23 -10 -26 -6 -4 -10 5 -10 19 0 14 5 26 10 26 6 0 10
-9 10 -19z m256 9 c15 -6 62 -12 104 -14 79 -4 124 -19 117 -39 -3 -10 -32
-14 -54 -7 -5 1 -30 3 -58 4 -27 2 -79 6 -114 11 -41 5 -62 4 -58 -2 7 -12
138 -38 158 -31 8 3 20 -2 27 -11 11 -14 11 -14 6 2 -3 9 -1 17 5 17 6 0 11
-4 11 -10 0 -5 9 -10 21 -10 14 0 19 -5 16 -14 -3 -8 -1 -17 6 -19 18 -6 6
-14 -33 -21 -26 -4 -30 -3 -15 3 18 9 17 10 -8 10 -16 1 -26 -3 -22 -9 9 -14
-2 -13 -111 11 -53 11 -98 18 -101 16 -2 -3 0 -13 6 -24 5 -10 12 -26 15 -35
9 -31 75 -53 151 -50 93 3 105 5 105 14 0 10 62 67 73 68 5 0 -2 -13 -15 -29
-13 -15 -26 -26 -30 -24 -12 6 -10 -11 2 -23 12 -12 -23 -54 -45 -54 -7 0 -20
-3 -28 -6 -8 -3 -22 2 -31 11 -13 14 -16 14 -16 2 0 -11 -11 -14 -44 -13 -24
0 -42 4 -39 8 2 5 -5 8 -16 8 -12 0 -21 -4 -21 -10 0 -5 -7 -10 -15 -10 -8 0
-15 8 -15 18 0 14 -8 18 -36 19 -22 1 -41 8 -49 20 -30 38 -46 141 -26 171 6
10 22 12 57 8 41 -5 45 -4 27 5 -13 7 -23 18 -23 25 0 22 71 31 116 14z m214
-111 c0 -5 -4 -9 -10 -9 -5 0 -10 7 -10 16 0 8 5 12 10 9 6 -3 10 -10 10 -16z
m-83 -574 c0 -8 -4 -12 -8 -9 -4 2 -9 0 -11 -5 -4 -12 -48 -24 -48 -13 0 4 15
16 33 25 17 8 32 16 33 16 0 1 1 -6 1 -14z m-257 -15 c0 -5 -5 -10 -11 -10 -5
0 -7 5 -4 10 3 6 8 10 11 10 2 0 4 -4 4 -10z m170 -44 c0 -3 -4 -8 -10 -11 -5
-3 -10 -1 -10 4 0 6 5 11 10 11 6 0 10 -2 10 -4z m1327 -428 c-3 -8 -6 -5 -6
6 -1 11 2 17 5 13 3 -3 4 -12 1 -19z"/>
<path d="M2728 3573 c7 -3 16 -2 19 1 4 3 -2 6 -13 5 -11 0 -14 -3 -6 -6z"/>
<path d="M2780 3576 c0 -2 7 -7 16 -10 8 -3 12 -2 9 4 -6 10 -25 14 -25 6z"/>
<path d="M2171 3034 c0 -11 3 -14 6 -6 3 7 2 16 -1 19 -3 4 -6 -2 -5 -13z"/>
<path d="M3583 3083 c9 -2 25 -2 35 0 9 3 1 5 -18 5 -19 0 -27 -2 -17 -5z"/>
<path d="M1250 2515 c0 -477 2 -555 14 -555 8 0 17 4 20 9 3 5 42 23 86 41
l80 32 0 479 c0 313 -3 479 -10 479 -5 0 -10 -7 -10 -15 0 -12 -14 -15 -70
-15 l-70 0 0 38 c0 36 -14 62 -32 62 -4 0 -8 -250 -8 -555z m70 -235 c-12 -8
-11 -10 7 -10 12 0 29 -3 39 -7 12 -4 15 -3 10 5 -4 7 -2 12 3 12 6 0 11 -7
11 -15 0 -11 -8 -14 -32 -11 -18 3 -39 5 -45 5 -20 1 -15 31 5 31 14 0 15 -2
2 -10z m107 -6 c-3 -3 -12 -4 -19 -1 -8 3 -5 6 6 6 11 1 17 -2 13 -5z m0 -20
c-3 -3 -12 -4 -19 -1 -8 3 -5 6 6 6 11 1 17 -2 13 -5z"/>
<path d="M2021 3035 c0 -11 4 -29 9 -40 l9 -20 0 20 c0 11 -4 29 -9 40 l-9 20
0 -20z"/>
<path d="M4170 3034 c0 -8 5 -12 10 -9 6 3 10 10 10 16 0 5 -4 9 -10 9 -5 0
-10 -7 -10 -16z"/>
<path d="M4624 3005 l-17 -26 -191 1 -191 2 -3 -397 -2 -396 52 6 c29 4 63 8
76 11 14 3 22 0 22 -10 0 -14 -49 -26 -112 -26 l-38 0 0 -226 0 -227 90 7 90
8 2 -514 c1 -282 2 -623 2 -758 l1 -245 -37 0 c-35 0 -37 -2 -43 -40 -3 -26 0
-57 10 -84 8 -24 15 -54 15 -67 0 -24 0 -24 124 -24 120 0 125 1 128 22 2 12
8 23 14 25 7 2 10 -6 7 -22 -4 -17 -1 -25 8 -25 12 0 14 224 13 1408 0 774 2
1454 5 1510 3 57 3 106 -1 108 -4 3 -15 -7 -24 -21z m-229 -375 c-27 -12 -43
-12 -25 0 8 5 22 9 30 9 10 0 8 -3 -5 -9z m-28 -62 c-3 -7 -5 -2 -5 12 0 14 2
19 5 13 2 -7 2 -19 0 -25z m250 -475 c-2 -32 -3 -8 -3 52 0 61 1 87 3 58 2
-29 2 -78 0 -110z m3 -638 c1 -594 3 -532 -12 -517 -7 7 -27 12 -45 12 l-33 0
0 178 c0 245 8 339 29 339 53 0 51 -3 51 97 l0 94 -40 4 c-23 2 -45 1 -50 -2
-5 -3 -11 -37 -13 -75 -2 -58 -3 -53 -5 32 l-2 101 55 -2 55 -1 0 124 c0 68 2
122 5 120 2 -3 5 -230 5 -504z m-50 175 c0 -5 -5 -10 -11 -10 -5 0 -7 5 -4 10
3 6 8 10 11 10 2 0 4 -4 4 -10z m27 -82 c-2 -18 -4 -4 -4 32 0 36 2 50 4 33 2
-18 2 -48 0 -65z m-70 20 c-3 -8 -6 -5 -6 6 -1 11 2 17 5 13 3 -3 4 -12 1 -19z
m53 -30 c0 -20 -8 -22 -30 -8 -10 6 -11 10 -2 10 6 0 12 10 12 23 0 18 2 19
10 7 5 -8 10 -23 10 -32z m-73 -140 c-2 -18 -4 -6 -4 27 0 33 2 48 4 33 2 -15
2 -42 0 -60z m0 -320 c-1 -46 -3 -9 -3 82 0 91 2 128 3 83 2 -46 2 -120 0
-165z m6 -353 c1 -140 5 -255 9 -255 4 0 8 99 8 221 0 207 1 219 17 203 16
-15 17 -15 24 2 7 17 8 17 8 2 1 -22 21 -24 21 -3 0 8 5 15 10 15 10 0 14
-131 11 -390 0 -69 -1 -148 -1 -175 l0 -51 -44 -13 c-24 -7 -64 -23 -90 -36
-45 -23 -58 -21 -34 3 7 7 20 12 30 12 17 0 18 20 18 367 0 201 3 364 6 360 4
-3 7 -121 7 -262z m-44 -382 c-1 -65 -3 -71 -8 -36 -7 39 -3 113 5 113 2 0 3
-35 3 -77z"/>
<path d="M4518 415 c2 -19 6 -35 8 -35 2 0 4 16 4 35 0 19 -4 35 -8 35 -4 0
-6 -16 -4 -35z"/>
<path d="M4684 3004 c3 -9 7 -82 8 -162 l2 -147 5 110 c7 132 3 215 -11 215
-6 0 -7 -7 -4 -16z"/>
<path d="M1630 2970 c0 -11 5 -20 10 -20 6 0 10 7 10 16 0 15 16 16 163 11 89
-3 149 -2 132 3 -16 4 -94 8 -172 9 -137 1 -143 0 -143 -19z"/>
<path d="M1988 2973 c7 -3 16 -2 19 1 4 3 -2 6 -13 5 -11 0 -14 -3 -6 -6z"/>
<path d="M4742 2788 l3 -193 95 -11 c52 -6 110 -14 128 -18 l32 -8 0 211 0
211 -130 0 -130 0 2 -192z"/>
<path d="M1633 2875 c0 -27 2 -38 4 -22 2 15 2 37 0 50 -2 12 -4 0 -4 -28z"/>
<path d="M805 2853 c-65 -5 -708 -33 -759 -33 -43 0 -46 -2 -46 -26 l0 -25
103 6 c209 12 765 35 853 35 75 0 93 -3 98 -16 3 -9 6 -253 7 -542 0 -304 4
-519 9 -507 5 11 9 266 9 568 l1 547 -117 -2 c-65 -1 -136 -3 -158 -5z"/>
<path d="M4694 2440 c0 -91 2 -128 3 -82 2 45 2 119 0 165 -1 45 -3 8 -3 -83z"/>
<path d="M4740 2376 c0 -146 -14 -133 130 -116 143 17 131 6 128 113 l-3 92
-85 12 c-47 7 -104 15 -127 19 l-43 6 0 -126z"/>
<path d="M2100 2429 c13 -46 21 -48 18 -6 -2 20 -8 37 -15 37 -8 0 -9 -9 -3
-31z"/>
<path d="M4832 2227 l-92 -10 0 -244 1 -243 130 0 129 0 0 255 0 255 -37 -2
c-21 -1 -80 -6 -131 -11z"/>
<path d="M2365 2190 c-3 -5 -2 -10 4 -10 5 0 13 5 16 10 3 6 2 10 -4 10 -5 0
-13 -4 -16 -10z"/>
<path d="M4695 1625 c0 -302 1 -428 2 -278 2 149 2 397 0 550 -1 153 -2 31 -2
-272z"/>
<path d="M2315 2064 c-79 -40 -135 -75 -135 -86 0 -5 15 -8 33 -8 27 0 47 -15
121 -86 101 -98 98 -83 46 -242 -44 -132 -127 -438 -149 -555 -12 -56 -32
-156 -46 -222 -32 -147 -111 -612 -125 -738 -6 -51 -13 -100 -16 -109 -5 -17
47 -18 1000 -18 l1005 0 -25 47 c-14 26 -35 58 -47 71 -25 27 -96 66 -105 58
-3 -3 -11 -1 -18 4 -20 18 -151 50 -199 50 -26 0 -66 5 -90 11 -48 12 -94 6
-225 -31 -85 -25 -113 -29 -412 -65 -209 -26 -269 -40 -380 -89 l-38 -16 0 27
c0 15 4 77 10 137 65 735 80 1172 48 1351 -36 192 -31 212 82 326 68 69 94 89
116 89 26 0 26 1 10 19 -15 16 -145 91 -158 91 -13 0 -2 -30 11 -31 10 0 6 -4
-8 -10 -44 -17 -236 -24 -272 -9 -29 13 -30 14 -13 27 10 7 26 13 36 13 10 0
18 7 18 15 0 8 -1 15 -2 15 -2 -1 -34 -17 -73 -36z m90 -1470 c64 -42 70 -135
14 -199 -74 -84 -219 -31 -224 82 -2 55 11 84 53 116 32 25 43 28 84 23 26 -3
59 -13 73 -22z"/>
<path d="M2328 593 c7 -3 16 -2 19 1 4 3 -2 6 -13 5 -11 0 -14 -3 -6 -6z"/>
<path d="M2365 550 c-4 -6 -5 -12 -4 -13 2 -1 14 -8 27 -15 27 -15 29 -2 3 22
-13 12 -21 14 -26 6z"/>
<path d="M2243 528 c-16 -36 -3 -82 25 -86 26 -4 31 28 8 48 -8 6 -16 24 -18
38 l-4 27 -11 -27z"/>
<path d="M2431 491 c-1 -24 2 -32 9 -25 7 7 7 19 1 35 -9 23 -10 22 -10 -10z"/>
<path d="M2360 450 c0 -15 5 -20 18 -18 9 2 17 10 17 18 0 8 -8 16 -17 18 -13
2 -18 -3 -18 -18z"/>
<path d="M2226 430 c13 -28 37 -50 53 -50 12 1 11 3 -4 12 -11 6 -28 20 -38
32 -10 11 -15 14 -11 6z"/>
<path d="M2415 429 c-4 -6 -5 -12 -2 -15 2 -3 7 2 10 11 7 17 1 20 -8 4z"/>
<path d="M2380 395 c-7 -9 -8 -15 -2 -15 5 0 12 7 16 15 3 8 4 15 2 15 -2 0
-9 -7 -16 -15z"/>
<path d="M2323 373 c9 -2 23 -2 30 0 6 3 -1 5 -18 5 -16 0 -22 -2 -12 -5z"/>
<path d="M195 1880 c-3 -5 -1 -10 4 -10 6 0 11 5 11 10 0 6 -2 10 -4 10 -3 0
-8 -4 -11 -10z"/>
<path d="M176 1851 c-4 -7 -5 -15 -2 -18 9 -9 19 4 14 18 -4 11 -6 11 -12 0z"/>
<path d="M200 1829 c0 -5 5 -7 10 -4 6 3 10 8 10 11 0 2 -4 4 -10 4 -5 0 -10
-5 -10 -11z"/>
<path d="M145 1820 c-3 -5 -1 -10 4 -10 6 0 11 5 11 10 0 6 -2 10 -4 10 -3 0
-8 -4 -11 -10z"/>
<path d="M60 1795 c-10 -12 -10 -15 3 -15 8 0 17 7 21 15 3 8 2 15 -3 15 -5 0
-14 -7 -21 -15z"/>
<path d="M310 1770 c0 -5 7 -10 15 -10 8 0 15 -9 15 -20 0 -11 7 -20 16 -20
13 0 13 4 -3 30 -17 29 -43 41 -43 20z"/>
<path d="M74 1748 c-4 -6 -3 -8 4 -4 6 3 13 2 16 -3 4 -5 -2 -12 -11 -14 -10
-3 35 -5 100 -6 67 -1 117 3 117 8 0 15 -18 23 -25 11 -3 -5 -42 -10 -86 -10
-62 0 -81 3 -85 15 -7 18 -20 19 -30 3z"/>
<path d="M17 1743 c-9 -2 -15 -9 -12 -14 9 -14 32 -11 39 6 6 15 4 16 -27 8z"/>
<path d="M315 1730 c-3 -5 -1 -10 4 -10 6 0 11 5 11 10 0 6 -2 10 -4 10 -3 0
-8 -4 -11 -10z"/>
<path d="M4226 1644 c-5 -13 -4 -14 7 -6 8 7 41 11 75 10 34 -1 65 1 69 5 3 4
-28 7 -69 7 -61 0 -77 -3 -82 -16z"/>
<path d="M0 1509 c0 -12 5 -16 14 -13 8 3 17 1 21 -5 3 -7 -2 -11 -15 -11 -19
0 -21 -5 -18 -60 l3 -60 217 0 c163 0 218 3 222 13 5 10 7 10 12 0 3 -7 19
-13 35 -13 21 0 27 4 23 15 -4 9 0 15 9 15 8 0 17 10 21 23 8 32 7 47 -4 47
-5 0 -10 -7 -10 -16 0 -8 -5 -12 -10 -9 -5 3 -10 -3 -10 -14 0 -12 -5 -21 -11
-21 -6 0 -8 9 -4 21 5 13 2 25 -6 30 -7 4 -11 10 -8 13 10 10 179 15 184 5 4
-5 11 -9 16 -9 6 0 7 5 4 10 -11 17 7 11 21 -7 13 -17 14 -17 8 0 -5 14 0 17
25 17 36 0 54 -27 28 -42 -10 -5 -17 -14 -17 -21 0 -7 4 -6 10 3 16 26 24 2
28 -88 4 -87 4 -88 31 -87 26 0 28 4 22 63 0 6 -10 12 -21 12 -16 0 -20 7 -20
33 0 30 14 57 30 57 4 0 5 -15 3 -32 -3 -25 -2 -30 6 -18 6 8 11 39 11 68 l0
52 64 0 c63 0 76 7 76 41 0 5 -197 8 -495 7 -469 -1 -495 -2 -495 -19z m95 -9
c3 -5 -1 -10 -10 -10 -9 0 -13 5 -10 10 3 6 8 10 10 10 2 0 7 -4 10 -10z m205
-32 c0 -6 -9 -12 -20 -15 -11 -3 -20 -9 -20 -14 0 -5 7 -6 16 -2 12 4 14 0 8
-23 -4 -16 -3 -26 1 -22 4 4 10 22 14 40 4 19 14 34 23 36 13 2 15 -2 11 -20
-17 -74 -53 -103 -67 -55 l-7 22 -11 -22 c-6 -13 -20 -23 -31 -23 -19 0 -19 1
-5 13 9 6 19 23 23 37 l7 25 -16 -22 c-17 -23 -46 -21 -46 3 0 20 -28 17 -34
-3 -6 -19 -60 -24 -84 -9 -7 4 -12 1 -12 -7 0 -8 -6 -19 -13 -25 -9 -8 -13 -7
-13 6 0 9 -4 28 -9 42 -7 21 -6 23 6 13 12 -10 17 -8 27 7 9 15 26 20 74 22
127 6 178 5 178 -4z m157 -24 c-14 -14 -63 -10 -69 5 -3 9 -5 -1 -5 -21 2 -29
6 -38 20 -38 9 0 17 -4 17 -10 0 -16 -23 -11 -47 9 -43 36 -25 83 30 79 20 -1
40 2 44 6 4 4 10 0 11 -9 2 -9 2 -19 -1 -21z m344 -7 c-10 -9 -11 -8 -5 6 3
10 9 15 12 12 3 -3 0 -11 -7 -18z m-683 -54 c2 -9 -7 -13 -27 -13 -19 0 -31 5
-31 13 0 17 52 16 58 0z m47 -3 c3 -5 -1 -10 -9 -10 -8 0 -18 5 -21 10 -3 6 1
10 9 10 8 0 18 -4 21 -10z"/>
<path d="M201 1424 c0 -11 3 -14 6 -6 3 7 2 16 -1 19 -3 4 -6 -2 -5 -13z"/>
<path d="M4747 1523 c-11 -10 -8 -73 3 -73 6 0 10 5 10 10 0 6 28 10 63 10 56
0 63 -2 64 -20 1 -11 -2 -18 -8 -15 -5 4 -9 1 -9 -5 0 -7 9 -14 19 -17 12 -3
17 -11 14 -19 -7 -18 25 -30 40 -15 15 15 27 14 27 -4 0 -8 6 -15 13 -15 10 0
14 22 15 85 l1 85 -123 0 c-67 0 -126 -3 -129 -7z"/>
<path d="M605 1439 c-4 -6 -5 -12 -2 -15 2 -3 7 2 10 11 7 17 1 20 -8 4z"/>
<path d="M875 1430 c-3 -5 -1 -10 4 -10 6 0 11 5 11 10 0 6 -2 10 -4 10 -3 0
-8 -4 -11 -10z"/>
<path d="M4798 1423 c-20 -5 -26 -53 -7 -53 6 0 9 7 5 15 -3 10 3 17 19 21 14
3 25 10 25 15 0 9 -13 10 -42 2z"/>
<path d="M538 1363 c7 -3 16 -2 19 1 4 3 -2 6 -13 5 -11 0 -14 -3 -6 -6z"/>
<path d="M790 1200 c0 -5 5 -10 11 -10 5 0 7 5 4 10 -3 6 -8 10 -11 10 -2 0
-4 -4 -4 -10z"/>
<path d="M830 1197 c0 -8 -9 -19 -20 -22 -18 -6 -20 -15 -20 -121 l0 -114
-182 -1 c-101 -1 -195 0 -210 1 -16 1 -28 -3 -28 -8 0 -6 -3 -17 -6 -26 -4
-11 -1 -16 10 -16 9 0 16 -6 16 -12 1 -8 6 -6 14 5 16 21 26 22 26 2 0 -18 16
-20 23 -2 4 8 6 7 6 -3 1 -16 19 -16 236 -8 l90 3 -2 -267 c-1 -157 2 -268 8
-268 5 0 9 15 9 33 0 18 5 60 11 92 8 46 8 60 -3 66 -8 5 -9 9 -2 9 16 0 36
144 36 247 0 58 4 86 14 94 18 15 18 59 0 59 -16 0 -27 110 -14 147 4 14 3 23
-5 27 -8 3 -9 7 -2 13 12 9 13 68 3 79 -5 4 -8 0 -8 -9z"/>
<path d="M1446 995 c4 -8 8 -15 10 -15 2 0 4 7 4 15 0 8 -4 15 -10 15 -5 0 -7
-7 -4 -15z"/>
<path d="M4747 943 c-12 -11 -8 -50 6 -61 7 -6 62 -10 127 -10 72 0 106 3 90
8 l-25 8 28 1 c22 1 27 6 27 25 0 18 -7 25 -31 30 -42 8 -214 8 -222 -1z"/>
<path d="M0 909 c0 -19 5 -29 15 -29 10 0 15 -10 15 -32 1 -28 2 -30 11 -15 5
9 8 21 5 26 -3 5 1 11 9 15 8 3 15 2 15 -2 0 -4 44 -6 97 -6 54 1 104 -3 111
-8 9 -8 12 -2 12 26 0 40 16 48 29 14 7 -21 8 -20 24 10 l15 32 -48 0 c-34 0
-50 -4 -54 -16 -5 -14 -7 -14 -21 0 -13 12 -39 15 -125 15 l-110 -1 0 -29z"/>
<path d="M1470 865 c0 -8 5 -15 10 -15 6 0 10 7 10 15 0 8 -4 15 -10 15 -5 0
-10 -7 -10 -15z"/>
<path d="M4925 831 c-3 -5 -1 -12 4 -15 5 -3 11 1 15 9 6 16 -9 21 -19 6z"/>
<path d="M3471 735 c-1 -89 1 -102 19 -118 21 -17 21 -17 18 80 -2 60 -7 97
-13 95 -5 -2 -13 7 -17 20 -3 13 -6 -22 -7 -77z"/>
<path d="M4793 785 c1 -19 5 -35 9 -35 4 0 8 16 8 35 0 19 -4 35 -9 35 -5 0
-9 -16 -8 -35z"/>
<path d="M4825 810 c-3 -5 -1 -10 4 -10 6 0 11 5 11 10 0 6 -2 10 -4 10 -3 0
-8 -4 -11 -10z"/>
<path d="M240 794 c0 -9 -6 -14 -12 -11 -7 2 -22 1 -33 -4 -18 -7 -18 -8 5 -8
42 -1 69 10 63 25 -7 19 -23 18 -23 -2z"/>
<path d="M515 800 c3 -5 8 -10 11 -10 2 0 4 5 4 10 0 6 -5 10 -11 10 -5 0 -7
-4 -4 -10z"/>
<path d="M4896 803 c-5 -6 18 -33 28 -33 3 0 6 6 6 14 0 15 -24 28 -34 19z"/>
<path d="M395 780 c3 -5 11 -10 16 -10 6 0 7 5 4 10 -3 6 -11 10 -16 10 -6 0
-7 -4 -4 -10z"/>
<path d="M622 782 c-27 -9 -9 -22 28 -22 22 0 40 4 40 9 0 10 -50 19 -68 13z"/>
<path d="M4752 760 c0 -14 2 -19 5 -12 2 6 2 18 0 25 -3 6 -5 1 -5 -13z"/>
<path d="M4880 760 c0 -5 5 -10 11 -10 5 0 7 5 4 10 -3 6 -8 10 -11 10 -2 0
-4 -4 -4 -10z"/>
<path d="M331 743 c7 -10 15 -20 16 -22 2 -2 3 5 3 17 0 14 -6 22 -16 22 -14
0 -15 -3 -3 -17z"/>
<path d="M4694 600 c0 -91 2 -128 3 -82 2 45 2 119 0 165 -1 45 -3 8 -3 -83z"/>
<path d="M1462 705 c0 -16 2 -22 5 -12 2 9 2 23 0 30 -3 6 -5 -1 -5 -18z"/>
<path d="M325 690 c3 -5 10 -10 16 -10 5 0 9 5 9 10 0 6 -7 10 -16 10 -8 0
-12 -4 -9 -10z"/>
<path d="M342 650 c0 -14 2 -19 5 -12 2 6 2 18 0 25 -3 6 -5 1 -5 -13z"/>
<path d="M321 644 c0 -11 3 -14 6 -6 3 7 2 16 -1 19 -3 4 -6 -2 -5 -13z"/>
<path d="M4750 644 c0 -8 5 -12 10 -9 6 4 8 11 5 16 -9 14 -15 11 -15 -7z"/>
<path d="M1461 624 c0 -11 3 -14 6 -6 3 7 2 16 -1 19 -3 4 -6 -2 -5 -13z"/>
<path d="M320 582 c0 -23 5 -43 13 -45 9 -4 9 -7 -1 -15 -10 -7 -10 -11 3 -22
13 -11 15 -6 15 43 0 36 -5 59 -15 67 -13 11 -15 7 -15 -28z"/>
<path d="M3642 488 c-6 -24 -15 -69 -20 -102 -8 -53 -7 -59 9 -63 11 -3 19
-10 19 -17 0 -6 5 -4 10 4 12 19 13 220 1 220 -4 0 -13 -19 -19 -42z"/>
<path d="M4910 470 c0 -5 7 -10 15 -10 8 0 15 5 15 10 0 6 -7 10 -15 10 -8 0
-15 -4 -15 -10z"/>
<path d="M4962 445 c0 -16 2 -22 5 -12 2 9 2 23 0 30 -3 6 -5 -1 -5 -18z"/>
<path d="M68 433 c6 -2 18 -2 25 0 6 3 1 5 -13 5 -14 0 -19 -2 -12 -5z"/>
<path d="M4857 385 c-4 -8 -2 -17 3 -20 6 -4 10 3 10 14 0 25 -6 27 -13 6z"/>
<path d="M4763 383 c-9 -3 -13 -26 -13 -64 0 -57 1 -59 20 -47 16 10 20 24 20
65 0 52 -3 56 -27 46z m13 -70 c-10 -10 -19 5 -10 18 6 11 8 11 12 0 2 -7 1
-15 -2 -18z"/>
<path d="M4925 380 c3 -5 1 -10 -5 -10 -6 0 -8 -4 -5 -10 3 -5 19 -10 36 -10
16 0 29 5 29 10 0 6 -9 10 -20 10 -11 0 -20 5 -20 10 0 6 -5 10 -11 10 -5 0
-7 -4 -4 -10z"/>
<path d="M4826 362 c-3 -5 1 -9 9 -9 8 0 12 4 9 9 -3 4 -7 8 -9 8 -2 0 -6 -4
-9 -8z"/>
<path d="M1392 330 c0 -19 2 -27 5 -17 2 9 2 25 0 35 -3 9 -5 1 -5 -18z"/>
<path d="M4854 327 c-8 -9 -7 -16 3 -25 11 -11 13 -8 13 13 0 28 -1 29 -16 12z"/>
<path d="M0 310 c0 -16 413 -15 440 0 9 6 -75 9 -212 9 -140 0 -228 -3 -228
-9z"/>
<path d="M472 311 c-18 -11 257 -13 283 -1 13 5 -32 9 -125 9 -80 0 -151 -3
-158 -8z"/>
<path d="M3430 310 c0 -6 37 -10 91 -10 57 0 88 4 84 10 -3 6 -44 10 -91 10
-49 0 -84 -4 -84 -10z"/>
<path d="M4931 291 c-1 -7 -7 -11 -16 -7 -11 4 -15 -1 -15 -17 0 -17 6 -22 23
-22 13 1 28 5 35 9 17 10 15 29 -2 23 -9 -4 -17 1 -19 11 -3 10 -5 11 -6 3z"/>
<path d="M1394 276 c-3 -8 -4 -23 -2 -33 3 -11 6 -6 9 15 6 34 2 42 -7 18z"/>
<path d="M4796 244 c-8 -22 4 -40 15 -23 11 18 11 39 0 39 -5 0 -12 -7 -15
-16z"/>
<path d="M4762 238 c-6 -6 -12 -18 -12 -26 0 -10 3 -10 16 2 8 9 14 21 12 26
-2 7 -8 6 -16 -2z"/>
<path d="M4836 211 c-3 -4 -8 -32 -11 -61 -4 -43 -3 -50 8 -41 8 6 16 8 20 5
3 -3 5 15 5 40 -1 26 -6 46 -12 46 -6 0 -4 5 4 10 9 6 10 10 3 10 -6 0 -14 -4
-17 -9z"/>
<path d="M4912 208 c-9 -12 -16 -47 -13 -76 1 -18 70 -12 80 8 12 21 -52 86
-67 68z"/>
<path d="M4752 158 c1 -25 8 -38 19 -41 15 -4 16 -1 7 27 -17 49 -29 56 -26
14z"/>
<path d="M762 135 c0 -16 2 -22 5 -12 2 9 2 23 0 30 -3 6 -5 -1 -5 -18z"/>
<path d="M58 103 c7 -3 16 -2 19 1 4 3 -2 6 -13 5 -11 0 -14 -3 -6 -6z"/>
<path d="M4907 93 c-4 -3 -7 -11 -7 -17 0 -6 5 -5 12 2 6 6 9 14 7 17 -3 3 -9
2 -12 -2z"/>
<path d="M4960 85 c0 -8 -7 -15 -15 -15 -22 0 -18 -17 6 -23 13 -4 18 -10 13
-18 -4 -8 -3 -10 4 -5 15 9 16 76 2 76 -5 0 -10 -7 -10 -15z"/>
<path d="M0 70 c0 -19 7 -20 165 -20 l165 0 0 -25 c0 -18 5 -25 20 -25 15 0
20 7 20 25 0 24 3 25 63 25 56 1 224 5 305 9 21 1 32 6 32 16 0 13 -49 15
-385 15 -378 0 -385 0 -385 -20z"/>
</g>
</svg>
